solid OpenSCAD_Model
  facet normal -1 0 0
    outer loop
      vertex -18.8019 -17.8678 -8.5
      vertex -18.8019 -17.8678 9.5
      vertex -18.8019 17.8678 -8.5
    endloop
  endfacet
  facet normal -1 0 0
    outer loop
      vertex -18.8019 8.875 5.125
      vertex -18.8019 -17.8678 9.5
      vertex -18.8019 17.8678 9.5
    endloop
  endfacet
  facet normal -1 0 0
    outer loop
      vertex -18.8019 8.875 0.875
      vertex -18.8019 -17.8678 9.5
      vertex -18.8019 8.875 5.125
    endloop
  endfacet
  facet normal -1 0 0
    outer loop
      vertex -18.8019 13.125 5.125
      vertex -18.8019 8.875 5.125
      vertex -18.8019 17.8678 9.5
    endloop
  endfacet
  facet normal -1 0 0
    outer loop
      vertex -18.8019 17.8678 -8.5
      vertex -18.8019 -17.8678 9.5
      vertex -18.8019 8.875 0.875
    endloop
  endfacet
  facet normal -1 0 0
    outer loop
      vertex -18.8019 14.4499 1.33861
      vertex -18.8019 13.125 0.875
      vertex -18.8019 13.125 1.0362
    endloop
  endfacet
  facet normal -1 0 0
    outer loop
      vertex -18.8019 14.4499 4.66139
      vertex -18.8019 17.8678 9.5
      vertex -18.8019 15.25 3
    endloop
  endfacet
  facet normal -1 0 0
    outer loop
      vertex -18.8019 17.8678 -8.5
      vertex -18.8019 13.125 0.875
      vertex -18.8019 14.4499 1.33861
    endloop
  endfacet
  facet normal -1 0 0
    outer loop
      vertex -18.8019 17.8678 -8.5
      vertex -18.8019 14.4499 1.33861
      vertex -18.8019 15.25 3
    endloop
  endfacet
  facet normal -1 0 0
    outer loop
      vertex -18.8019 17.8678 -8.5
      vertex -18.8019 15.25 3
      vertex -18.8019 17.8678 9.5
    endloop
  endfacet
  facet normal -1 0 0
    outer loop
      vertex -18.8019 14.4499 4.66139
      vertex -18.8019 13.125 4.9638
      vertex -18.8019 17.8678 9.5
    endloop
  endfacet
  facet normal -1 0 0
    outer loop
      vertex -18.8019 13.125 4.9638
      vertex -18.8019 13.125 5.125
      vertex -18.8019 17.8678 9.5
    endloop
  endfacet
  facet normal -1 0 0
    outer loop
      vertex -18.8019 13.125 0.875
      vertex -18.8019 17.8678 -8.5
      vertex -18.8019 8.875 0.875
    endloop
  endfacet
  facet normal -0.62349 -0.781831 0
    outer loop
      vertex -18.8019 -17.8678 9.5
      vertex -18.8019 -17.8678 -8.5
      vertex -17.445 -18.9499 -8.5
    endloop
  endfacet
  facet normal -0.62349 -0.781831 0
    outer loop
      vertex -17.445 -18.9499 9.5
      vertex -18.8019 -17.8678 9.5
      vertex -17.445 -18.9499 -8.5
    endloop
  endfacet
  facet normal 0 0 -1
    outer loop
      vertex -18.8019 -17.8678 -8.5
      vertex -18.8019 17.8678 -8.5
      vertex -17.445 -18.9499 -8.5
    endloop
  endfacet
  facet normal 0 0 -1
    outer loop
      vertex -17.445 -18.9499 -8.5
      vertex -18.8019 17.8678 -8.5
      vertex -17.445 18.9499 -8.5
    endloop
  endfacet
  facet normal 0 0 -1
    outer loop
      vertex 3.39919 10.4616 -8.5
      vertex -17.445 18.9499 -8.5
      vertex 16.555 18.9499 -8.5
    endloop
  endfacet
  facet normal 0 0 -1
    outer loop
      vertex 7.36044 8.17459 -8.5
      vertex 16.555 18.9499 -8.5
      vertex 18.247 18.5637 -8.5
    endloop
  endfacet
  facet normal 0 0 -1
    outer loop
      vertex 10.049 -4.4741 -8.5
      vertex 19 17 -8.5
      vertex 19 -17 -8.5
    endloop
  endfacet
  facet normal 0 0 -1
    outer loop
      vertex -17.445 -18.9499 -8.5
      vertex 19 -17 -8.5
      vertex 18.247 -18.5637 -8.5
    endloop
  endfacet
  facet normal 0 0 -1
    outer loop
      vertex -17.445 -18.9499 -8.5
      vertex 18.247 -18.5637 -8.5
      vertex 16.555 -18.9499 -8.5
    endloop
  endfacet
  facet normal 0 0 -1
    outer loop
      vertex -17.445 -18.9499 -8.5
      vertex -17.445 18.9499 -8.5
      vertex -11 0 -8.5
    endloop
  endfacet
  facet normal 0 0 -1
    outer loop
      vertex -17.445 -18.9499 -8.5
      vertex -11 0 -8.5
      vertex -10.7596 -2.28703 -8.5
    endloop
  endfacet
  facet normal 0 0 -1
    outer loop
      vertex -17.445 -18.9499 -8.5
      vertex -10.7596 -2.28703 -8.5
      vertex -10.049 -4.4741 -8.5
    endloop
  endfacet
  facet normal 0 0 -1
    outer loop
      vertex -17.445 -18.9499 -8.5
      vertex -10.049 -4.4741 -8.5
      vertex -8.89919 -6.46564 -8.5
    endloop
  endfacet
  facet normal 0 0 -1
    outer loop
      vertex -5.5 -9.52628 -8.5
      vertex -17.445 -18.9499 -8.5
      vertex -7.36044 -8.17459 -8.5
    endloop
  endfacet
  facet normal 0 0 -1
    outer loop
      vertex 7.36044 8.17459 -8.5
      vertex 18.247 18.5637 -8.5
      vertex 19 17 -8.5
    endloop
  endfacet
  facet normal 0 0 -1
    outer loop
      vertex -17.445 -18.9499 -8.5
      vertex -5.5 -9.52628 -8.5
      vertex -3.39919 -10.4616 -8.5
    endloop
  endfacet
  facet normal 0 0 -1
    outer loop
      vertex -17.445 -18.9499 -8.5
      vertex -3.39919 -10.4616 -8.5
      vertex 19 -17 -8.5
    endloop
  endfacet
  facet normal 0 0 -1
    outer loop
      vertex -3.39919 -10.4616 -8.5
      vertex -1.14981 -10.9397 -8.5
      vertex 19 -17 -8.5
    endloop
  endfacet
  facet normal 0 0 -1
    outer loop
      vertex 8.89919 6.46564 -8.5
      vertex 19 17 -8.5
      vertex 10.049 4.4741 -8.5
    endloop
  endfacet
  facet normal 0 0 -1
    outer loop
      vertex 11 0 -8.5
      vertex 19 17 -8.5
      vertex 10.7596 -2.28703 -8.5
    endloop
  endfacet
  facet normal 0 0 -1
    outer loop
      vertex 1.14981 -10.9397 -8.5
      vertex 3.39919 -10.4616 -8.5
      vertex 19 -17 -8.5
    endloop
  endfacet
  facet normal 0 0 -1
    outer loop
      vertex 10.049 4.4741 -8.5
      vertex 19 17 -8.5
      vertex 10.7596 2.28703 -8.5
    endloop
  endfacet
  facet normal 0 0 -1
    outer loop
      vertex 3.39919 -10.4616 -8.5
      vertex 5.5 -9.52628 -8.5
      vertex 19 -17 -8.5
    endloop
  endfacet
  facet normal 0 0 -1
    outer loop
      vertex 10.7596 2.28703 -8.5
      vertex 19 17 -8.5
      vertex 11 0 -8.5
    endloop
  endfacet
  facet normal 0 0 -1
    outer loop
      vertex 5.5 -9.52628 -8.5
      vertex 7.36044 -8.17459 -8.5
      vertex 19 -17 -8.5
    endloop
  endfacet
  facet normal 0 0 -1
    outer loop
      vertex 7.36044 -8.17459 -8.5
      vertex 8.89919 -6.46564 -8.5
      vertex 19 -17 -8.5
    endloop
  endfacet
  facet normal 0 0 -1
    outer loop
      vertex 10.7596 -2.28703 -8.5
      vertex 19 17 -8.5
      vertex 10.049 -4.4741 -8.5
    endloop
  endfacet
  facet normal 0 0 -1
    outer loop
      vertex 8.89919 -6.46564 -8.5
      vertex 10.049 -4.4741 -8.5
      vertex 19 -17 -8.5
    endloop
  endfacet
  facet normal 0 0 -1
    outer loop
      vertex 7.36044 8.17459 -8.5
      vertex 19 17 -8.5
      vertex 8.89919 6.46564 -8.5
    endloop
  endfacet
  facet normal 0 0 -1
    outer loop
      vertex 1.14981 -10.9397 -8.5
      vertex 19 -17 -8.5
      vertex -1.14981 -10.9397 -8.5
    endloop
  endfacet
  facet normal 0 0 -1
    outer loop
      vertex 5.5 9.52628 -8.5
      vertex 16.555 18.9499 -8.5
      vertex 7.36044 8.17459 -8.5
    endloop
  endfacet
  facet normal 0 0 -1
    outer loop
      vertex 3.39919 10.4616 -8.5
      vertex 16.555 18.9499 -8.5
      vertex 5.5 9.52628 -8.5
    endloop
  endfacet
  facet normal 0 0 -1
    outer loop
      vertex 1.14981 10.9397 -8.5
      vertex -17.445 18.9499 -8.5
      vertex 3.39919 10.4616 -8.5
    endloop
  endfacet
  facet normal 0 0 -1
    outer loop
      vertex -1.14981 10.9397 -8.5
      vertex -17.445 18.9499 -8.5
      vertex 1.14981 10.9397 -8.5
    endloop
  endfacet
  facet normal 0 0 -1
    outer loop
      vertex -3.39919 10.4616 -8.5
      vertex -17.445 18.9499 -8.5
      vertex -1.14981 10.9397 -8.5
    endloop
  endfacet
  facet normal 0 0 -1
    outer loop
      vertex -5.5 9.52628 -8.5
      vertex -17.445 18.9499 -8.5
      vertex -3.39919 10.4616 -8.5
    endloop
  endfacet
  facet normal 0 0 -1
    outer loop
      vertex -7.36044 8.17459 -8.5
      vertex -17.445 18.9499 -8.5
      vertex -5.5 9.52628 -8.5
    endloop
  endfacet
  facet normal 0 0 -1
    outer loop
      vertex -8.89919 6.46564 -8.5
      vertex -17.445 18.9499 -8.5
      vertex -7.36044 8.17459 -8.5
    endloop
  endfacet
  facet normal 0 0 -1
    outer loop
      vertex -10.049 4.4741 -8.5
      vertex -17.445 18.9499 -8.5
      vertex -8.89919 6.46564 -8.5
    endloop
  endfacet
  facet normal 0 0 -1
    outer loop
      vertex -10.7596 2.28703 -8.5
      vertex -17.445 18.9499 -8.5
      vertex -10.049 4.4741 -8.5
    endloop
  endfacet
  facet normal 0 0 -1
    outer loop
      vertex -11 0 -8.5
      vertex -17.445 18.9499 -8.5
      vertex -10.7596 2.28703 -8.5
    endloop
  endfacet
  facet normal 0 0 -1
    outer loop
      vertex -7.36044 -8.17459 -8.5
      vertex -17.445 -18.9499 -8.5
      vertex -8.89919 -6.46564 -8.5
    endloop
  endfacet
  facet normal -0.62349 0.781831 0
    outer loop
      vertex -18.8019 17.8678 -8.5
      vertex -18.8019 17.8678 9.5
      vertex -17.445 18.9499 -8.5
    endloop
  endfacet
  facet normal -0.62349 0.781831 0
    outer loop
      vertex -17.445 18.9499 -8.5
      vertex -18.8019 17.8678 9.5
      vertex -17.445 18.9499 9.5
    endloop
  endfacet
  facet normal 0 0 1
    outer loop
      vertex -18.8019 17.8678 9.5
      vertex -18.8019 -17.8678 9.5
      vertex -17.445 -18.9499 9.5
    endloop
  endfacet
  facet normal 0 0 1
    outer loop
      vertex 7.36044 -8.17459 9.5
      vertex 5.5 -9.52628 9.5
      vertex 16.555 -18.9499 9.5
    endloop
  endfacet
  facet normal 0 0 1
    outer loop
      vertex -10.7596 -2.28703 9.5
      vertex -18.8019 17.8678 9.5
      vertex -17.445 -18.9499 9.5
    endloop
  endfacet
  facet normal 0 0 1
    outer loop
      vertex 18.247 18.5637 9.5
      vertex -18.8019 17.8678 9.5
      vertex 19 17 9.5
    endloop
  endfacet
  facet normal 0 0 1
    outer loop
      vertex 16.555 18.9499 9.5
      vertex -18.8019 17.8678 9.5
      vertex 18.247 18.5637 9.5
    endloop
  endfacet
  facet normal 0 0 1
    outer loop
      vertex -17.445 18.9499 9.5
      vertex -18.8019 17.8678 9.5
      vertex 16.555 18.9499 9.5
    endloop
  endfacet
  facet normal 0 0 1
    outer loop
      vertex -10.049 -4.4741 9.5
      vertex -10.7596 -2.28703 9.5
      vertex -17.445 -18.9499 9.5
    endloop
  endfacet
  facet normal 0 0 1
    outer loop
      vertex -11 0 9.5
      vertex -18.8019 17.8678 9.5
      vertex -10.7596 -2.28703 9.5
    endloop
  endfacet
  facet normal 0 0 1
    outer loop
      vertex -10.7596 2.28703 9.5
      vertex -18.8019 17.8678 9.5
      vertex -11 0 9.5
    endloop
  endfacet
  facet normal 0 0 1
    outer loop
      vertex 3.39919 -10.4616 9.5
      vertex 1.14981 -10.9397 9.5
      vertex 16.555 -18.9499 9.5
    endloop
  endfacet
  facet normal 0 0 1
    outer loop
      vertex -10.049 4.4741 9.5
      vertex -18.8019 17.8678 9.5
      vertex -10.7596 2.28703 9.5
    endloop
  endfacet
  facet normal 0 0 1
    outer loop
      vertex -8.89919 6.46564 9.5
      vertex -18.8019 17.8678 9.5
      vertex -10.049 4.4741 9.5
    endloop
  endfacet
  facet normal 0 0 1
    outer loop
      vertex -5.5 9.52628 9.5
      vertex -18.8019 17.8678 9.5
      vertex -7.36044 8.17459 9.5
    endloop
  endfacet
  facet normal 0 0 1
    outer loop
      vertex -3.39919 10.4616 9.5
      vertex -18.8019 17.8678 9.5
      vertex -5.5 9.52628 9.5
    endloop
  endfacet
  facet normal 0 0 1
    outer loop
      vertex 19 17 9.5
      vertex -18.8019 17.8678 9.5
      vertex -3.39919 10.4616 9.5
    endloop
  endfacet
  facet normal 0 0 1
    outer loop
      vertex 10.7596 2.28703 9.5
      vertex 11 0 9.5
      vertex 19 -17 9.5
    endloop
  endfacet
  facet normal 0 0 1
    outer loop
      vertex 19 17 9.5
      vertex -3.39919 10.4616 9.5
      vertex -1.14981 10.9397 9.5
    endloop
  endfacet
  facet normal 0 0 1
    outer loop
      vertex 8.89919 -6.46564 9.5
      vertex 18.247 -18.5637 9.5
      vertex 19 -17 9.5
    endloop
  endfacet
  facet normal 0 0 1
    outer loop
      vertex 8.89919 -6.46564 9.5
      vertex 7.36044 -8.17459 9.5
      vertex 18.247 -18.5637 9.5
    endloop
  endfacet
  facet normal 0 0 1
    outer loop
      vertex 19 17 9.5
      vertex 1.14981 10.9397 9.5
      vertex 3.39919 10.4616 9.5
    endloop
  endfacet
  facet normal 0 0 1
    outer loop
      vertex 19 17 9.5
      vertex 3.39919 10.4616 9.5
      vertex 5.5 9.52628 9.5
    endloop
  endfacet
  facet normal 0 0 1
    outer loop
      vertex 11 0 9.5
      vertex 10.7596 -2.28703 9.5
      vertex 19 -17 9.5
    endloop
  endfacet
  facet normal 0 0 1
    outer loop
      vertex 19 17 9.5
      vertex 5.5 9.52628 9.5
      vertex 7.36044 8.17459 9.5
    endloop
  endfacet
  facet normal 0 0 1
    outer loop
      vertex 10.7596 -2.28703 9.5
      vertex 10.049 -4.4741 9.5
      vertex 19 -17 9.5
    endloop
  endfacet
  facet normal 0 0 1
    outer loop
      vertex 19 17 9.5
      vertex 7.36044 8.17459 9.5
      vertex 8.89919 6.46564 9.5
    endloop
  endfacet
  facet normal 0 0 1
    outer loop
      vertex 19 17 9.5
      vertex 10.049 4.4741 9.5
      vertex 19 -17 9.5
    endloop
  endfacet
  facet normal 0 0 1
    outer loop
      vertex 19 17 9.5
      vertex 8.89919 6.46564 9.5
      vertex 10.049 4.4741 9.5
    endloop
  endfacet
  facet normal 0 0 1
    outer loop
      vertex 10.049 4.4741 9.5
      vertex 10.7596 2.28703 9.5
      vertex 19 -17 9.5
    endloop
  endfacet
  facet normal 0 0 1
    outer loop
      vertex 10.049 -4.4741 9.5
      vertex 8.89919 -6.46564 9.5
      vertex 19 -17 9.5
    endloop
  endfacet
  facet normal 0 0 1
    outer loop
      vertex 18.247 -18.5637 9.5
      vertex 7.36044 -8.17459 9.5
      vertex 16.555 -18.9499 9.5
    endloop
  endfacet
  facet normal 0 0 1
    outer loop
      vertex -1.14981 10.9397 9.5
      vertex 1.14981 10.9397 9.5
      vertex 19 17 9.5
    endloop
  endfacet
  facet normal 0 0 1
    outer loop
      vertex 16.555 -18.9499 9.5
      vertex 1.14981 -10.9397 9.5
      vertex -17.445 -18.9499 9.5
    endloop
  endfacet
  facet normal 0 0 1
    outer loop
      vertex 1.14981 -10.9397 9.5
      vertex -1.14981 -10.9397 9.5
      vertex -17.445 -18.9499 9.5
    endloop
  endfacet
  facet normal 0 0 1
    outer loop
      vertex -1.14981 -10.9397 9.5
      vertex -3.39919 -10.4616 9.5
      vertex -17.445 -18.9499 9.5
    endloop
  endfacet
  facet normal 0 0 1
    outer loop
      vertex -3.39919 -10.4616 9.5
      vertex -5.5 -9.52628 9.5
      vertex -17.445 -18.9499 9.5
    endloop
  endfacet
  facet normal 0 0 1
    outer loop
      vertex -5.5 -9.52628 9.5
      vertex -7.36044 -8.17459 9.5
      vertex -17.445 -18.9499 9.5
    endloop
  endfacet
  facet normal 0 0 1
    outer loop
      vertex -7.36044 -8.17459 9.5
      vertex -8.89919 -6.46564 9.5
      vertex -17.445 -18.9499 9.5
    endloop
  endfacet
  facet normal 0 0 1
    outer loop
      vertex -8.89919 -6.46564 9.5
      vertex -10.049 -4.4741 9.5
      vertex -17.445 -18.9499 9.5
    endloop
  endfacet
  facet normal 0 0 1
    outer loop
      vertex 5.5 -9.52628 9.5
      vertex 3.39919 -10.4616 9.5
      vertex 16.555 -18.9499 9.5
    endloop
  endfacet
  facet normal 0 0 1
    outer loop
      vertex -8.89919 6.46564 9.5
      vertex -7.36044 8.17459 9.5
      vertex -18.8019 17.8678 9.5
    endloop
  endfacet
  facet normal 6.12303e-017 1 0
    outer loop
      vertex -9.5 8.875 5.125
      vertex -9.5 8.875 0.875
      vertex -18.8019 8.875 5.125
    endloop
  endfacet
  facet normal 6.12303e-017 1 0
    outer loop
      vertex -18.8019 8.875 5.125
      vertex -9.5 8.875 0.875
      vertex -18.8019 8.875 0.875
    endloop
  endfacet
  facet normal 6.12303e-017 -3.74915e-033 -1
    outer loop
      vertex -9.5 13.125 5.125
      vertex -9.5 8.875 5.125
      vertex -18.8019 13.125 5.125
    endloop
  endfacet
  facet normal 6.12303e-017 -3.74915e-033 -1
    outer loop
      vertex -18.8019 13.125 5.125
      vertex -9.5 8.875 5.125
      vertex -18.8019 8.875 5.125
    endloop
  endfacet
  facet normal -6.12303e-017 -1 0
    outer loop
      vertex -9.5 13.125 4.9638
      vertex -9.5 13.125 5.125
      vertex -18.8019 13.125 5.125
    endloop
  endfacet
  facet normal -6.12303e-017 -1 0
    outer loop
      vertex -18.8019 13.125 4.9638
      vertex -9.5 13.125 4.9638
      vertex -18.8019 13.125 5.125
    endloop
  endfacet
  facet normal 4.60701e-017 -0.222521 -0.974928
    outer loop
      vertex -9.5 14.4499 4.66139
      vertex -9.5 13.125 4.9638
      vertex -18.8019 14.4499 4.66139
    endloop
  endfacet
  facet normal 4.60701e-017 -0.222521 -0.974928
    outer loop
      vertex -18.8019 14.4499 4.66139
      vertex -9.5 13.125 4.9638
      vertex -18.8019 13.125 4.9638
    endloop
  endfacet
  facet normal -2.85998e-017 -0.900969 -0.433884
    outer loop
      vertex -18.8019 15.25 3
      vertex -9.5 15.25 3
      vertex -9.5 14.4499 4.66139
    endloop
  endfacet
  facet normal -2.85998e-017 -0.900969 -0.433884
    outer loop
      vertex -18.8019 14.4499 4.66139
      vertex -18.8019 15.25 3
      vertex -9.5 14.4499 4.66139
    endloop
  endfacet
  facet normal -8.17334e-017 -0.900969 0.433884
    outer loop
      vertex -9.5 14.4499 1.33861
      vertex -9.5 15.25 3
      vertex -18.8019 15.25 3
    endloop
  endfacet
  facet normal -8.17334e-017 -0.900969 0.433884
    outer loop
      vertex -18.8019 14.4499 1.33861
      vertex -9.5 14.4499 1.33861
      vertex -18.8019 15.25 3
    endloop
  endfacet
  facet normal -7.33202e-017 -0.222521 0.974928
    outer loop
      vertex -9.5 13.125 1.0362
      vertex -9.5 14.4499 1.33861
      vertex -18.8019 14.4499 1.33861
    endloop
  endfacet
  facet normal -7.33202e-017 -0.222521 0.974928
    outer loop
      vertex -18.8019 13.125 1.0362
      vertex -9.5 13.125 1.0362
      vertex -18.8019 14.4499 1.33861
    endloop
  endfacet
  facet normal -6.12303e-017 -1 0
    outer loop
      vertex -9.5 13.125 0.875
      vertex -9.5 13.125 1.0362
      vertex -18.8019 13.125 1.0362
    endloop
  endfacet
  facet normal -6.12303e-017 -1 0
    outer loop
      vertex -18.8019 13.125 0.875
      vertex -9.5 13.125 0.875
      vertex -18.8019 13.125 1.0362
    endloop
  endfacet
  facet normal -6.12303e-017 3.74915e-033 1
    outer loop
      vertex -9.5 8.875 0.875
      vertex -9.5 13.125 0.875
      vertex -18.8019 13.125 0.875
    endloop
  endfacet
  facet normal -6.12303e-017 3.74915e-033 1
    outer loop
      vertex -18.8019 8.875 0.875
      vertex -9.5 8.875 0.875
      vertex -18.8019 13.125 0.875
    endloop
  endfacet
  facet normal 0 -1 0
    outer loop
      vertex 8.875 -18.9499 -5.125
      vertex -17.445 -18.9499 -8.5
      vertex 16.555 -18.9499 -8.5
    endloop
  endfacet
  facet normal 0 -1 0
    outer loop
      vertex 8.875 -18.9499 -5.125
      vertex 8.875 -18.9499 -0.875
      vertex -17.445 -18.9499 9.5
    endloop
  endfacet
  facet normal 0 -1 0
    outer loop
      vertex -17.445 -18.9499 9.5
      vertex -17.445 -18.9499 -8.5
      vertex 8.875 -18.9499 -5.125
    endloop
  endfacet
  facet normal 0 -1 0
    outer loop
      vertex 16.555 -18.9499 9.5
      vertex -17.445 -18.9499 9.5
      vertex 8.875 -18.9499 -0.875
    endloop
  endfacet
  facet normal 0 -1 0
    outer loop
      vertex 16.555 -18.9499 9.5
      vertex 8.875 -18.9499 -0.875
      vertex 13.125 -18.9499 -0.875
    endloop
  endfacet
  facet normal 0 -1 0
    outer loop
      vertex 16.555 -18.9499 9.5
      vertex 13.125 -18.9499 -0.875
      vertex 14.4499 -18.9499 -1.33861
    endloop
  endfacet
  facet normal 0 -1 0
    outer loop
      vertex 16.555 -18.9499 9.5
      vertex 15.25 -18.9499 -3
      vertex 16.555 -18.9499 -8.5
    endloop
  endfacet
  facet normal 0 -1 0
    outer loop
      vertex 16.555 -18.9499 9.5
      vertex 14.4499 -18.9499 -1.33861
      vertex 15.25 -18.9499 -3
    endloop
  endfacet
  facet normal 0 -1 0
    outer loop
      vertex 14.4499 -18.9499 -4.66139
      vertex 13.125 -18.9499 -4.9638
      vertex 16.555 -18.9499 -8.5
    endloop
  endfacet
  facet normal 0 -1 0
    outer loop
      vertex 13.125 -18.9499 -4.9638
      vertex 13.125 -18.9499 -5.125
      vertex 16.555 -18.9499 -8.5
    endloop
  endfacet
  facet normal 0 -1 0
    outer loop
      vertex 13.125 -18.9499 -1.0362
      vertex 14.4499 -18.9499 -1.33861
      vertex 13.125 -18.9499 -0.875
    endloop
  endfacet
  facet normal 0 -1 0
    outer loop
      vertex 13.125 -18.9499 -5.125
      vertex 8.875 -18.9499 -5.125
      vertex 16.555 -18.9499 -8.5
    endloop
  endfacet
  facet normal 0 -1 0
    outer loop
      vertex 15.25 -18.9499 -3
      vertex 14.4499 -18.9499 -4.66139
      vertex 16.555 -18.9499 -8.5
    endloop
  endfacet
  facet normal 0.222521 -0.974928 0
    outer loop
      vertex 16.555 -18.9499 9.5
      vertex 16.555 -18.9499 -8.5
      vertex 18.247 -18.5637 -8.5
    endloop
  endfacet
  facet normal 0.222521 -0.974928 0
    outer loop
      vertex 18.247 -18.5637 9.5
      vertex 16.555 -18.9499 9.5
      vertex 18.247 -18.5637 -8.5
    endloop
  endfacet
  facet normal 0.900969 -0.433884 0
    outer loop
      vertex 18.247 -18.5637 9.5
      vertex 18.247 -18.5637 -8.5
      vertex 19 -17 -8.5
    endloop
  endfacet
  facet normal 0.900969 -0.433884 0
    outer loop
      vertex 19 -17 9.5
      vertex 18.247 -18.5637 9.5
      vertex 19 -17 -8.5
    endloop
  endfacet
  facet normal 1 0 0
    outer loop
      vertex 19 0.927051 -5.85317
      vertex 19 -17 -8.5
      vertex 19 17 -8.5
    endloop
  endfacet
  facet normal 1 0 0
    outer loop
      vertex 19 8.875 0.875
      vertex 19 -17 9.5
      vertex 19 17 -8.5
    endloop
  endfacet
  facet normal 1 0 0
    outer loop
      vertex 19 8.875 5.125
      vertex 19 13.125 5.125
      vertex 19 17 9.5
    endloop
  endfacet
  facet normal 1 0 0
    outer loop
      vertex 19 -17 9.5
      vertex 19 -17 -8.5
      vertex 19 -2.42705 -4.76336
    endloop
  endfacet
  facet normal 1 0 0
    outer loop
      vertex 19 2.42705 -4.76336
      vertex 19 0.927051 -5.85317
      vertex 19 17 -8.5
    endloop
  endfacet
  facet normal 1 0 0
    outer loop
      vertex 19 -17 9.5
      vertex 19 -2.42705 -4.76336
      vertex 19 -3 -3
    endloop
  endfacet
  facet normal 1 0 0
    outer loop
      vertex 19 13.125 4.9638
      vertex 19 14.4499 4.66139
      vertex 19 13.125 5.125
    endloop
  endfacet
  facet normal 1 0 0
    outer loop
      vertex 19 -17 9.5
      vertex 19 -3 -3
      vertex 19 -2.42705 -1.23664
    endloop
  endfacet
  facet normal 1 0 0
    outer loop
      vertex 19 -17 9.5
      vertex 19 -2.42705 -1.23664
      vertex 19 -0.927051 -0.14683
    endloop
  endfacet
  facet normal 1 0 0
    outer loop
      vertex 19 -17 9.5
      vertex 19 0.927051 -0.14683
      vertex 19 17 -8.5
    endloop
  endfacet
  facet normal 1 0 0
    outer loop
      vertex 19 -17 9.5
      vertex 19 -0.927051 -0.14683
      vertex 19 0.927051 -0.14683
    endloop
  endfacet
  facet normal 1 0 0
    outer loop
      vertex 19 0.927051 -0.14683
      vertex 19 2.42705 -1.23664
      vertex 19 17 -8.5
    endloop
  endfacet
  facet normal 1 0 0
    outer loop
      vertex 19 -0.927051 -5.85317
      vertex 19 -17 -8.5
      vertex 19 0.927051 -5.85317
    endloop
  endfacet
  facet normal 1 0 0
    outer loop
      vertex 19 -2.42705 -4.76336
      vertex 19 -17 -8.5
      vertex 19 -0.927051 -5.85317
    endloop
  endfacet
  facet normal 1 0 0
    outer loop
      vertex 19 13.125 0.875
      vertex 19 8.875 0.875
      vertex 19 17 -8.5
    endloop
  endfacet
  facet normal 1 0 0
    outer loop
      vertex 19 8.875 5.125
      vertex 19 -17 9.5
      vertex 19 8.875 0.875
    endloop
  endfacet
  facet normal 1 0 0
    outer loop
      vertex 19 17 9.5
      vertex 19 -17 9.5
      vertex 19 8.875 5.125
    endloop
  endfacet
  facet normal 1 0 0
    outer loop
      vertex 19 15.25 3
      vertex 19 14.4499 1.33861
      vertex 19 17 -8.5
    endloop
  endfacet
  facet normal 1 0 0
    outer loop
      vertex 19 14.4499 1.33861
      vertex 19 13.125 1.0362
      vertex 19 17 -8.5
    endloop
  endfacet
  facet normal 1 0 0
    outer loop
      vertex 19 17 9.5
      vertex 19 13.125 5.125
      vertex 19 14.4499 4.66139
    endloop
  endfacet
  facet normal 1 0 0
    outer loop
      vertex 19 17 9.5
      vertex 19 15.25 3
      vertex 19 17 -8.5
    endloop
  endfacet
  facet normal 1 0 0
    outer loop
      vertex 19 17 9.5
      vertex 19 14.4499 4.66139
      vertex 19 15.25 3
    endloop
  endfacet
  facet normal 1 0 0
    outer loop
      vertex 19 13.125 1.0362
      vertex 19 13.125 0.875
      vertex 19 17 -8.5
    endloop
  endfacet
  facet normal 1 0 0
    outer loop
      vertex 19 2.42705 -1.23664
      vertex 19 3 -3
      vertex 19 17 -8.5
    endloop
  endfacet
  facet normal 1 0 0
    outer loop
      vertex 19 3 -3
      vertex 19 2.42705 -4.76336
      vertex 19 17 -8.5
    endloop
  endfacet
  facet normal 0.900969 0.433884 0
    outer loop
      vertex 19 17 -8.5
      vertex 18.247 18.5637 -8.5
      vertex 18.247 18.5637 9.5
    endloop
  endfacet
  facet normal 0.900969 0.433884 0
    outer loop
      vertex 19 17 9.5
      vertex 19 17 -8.5
      vertex 18.247 18.5637 9.5
    endloop
  endfacet
  facet normal 0.222521 0.974928 0
    outer loop
      vertex 16.555 18.9499 -8.5
      vertex 16.555 18.9499 9.5
      vertex 18.247 18.5637 -8.5
    endloop
  endfacet
  facet normal 0.222521 0.974928 0
    outer loop
      vertex 18.247 18.5637 -8.5
      vertex 16.555 18.9499 9.5
      vertex 18.247 18.5637 9.5
    endloop
  endfacet
  facet normal 0 1 0
    outer loop
      vertex 0.927051 18.9499 5.85317
      vertex -17.445 18.9499 9.5
      vertex 16.555 18.9499 9.5
    endloop
  endfacet
  facet normal 0 1 0
    outer loop
      vertex -3 18.9499 3
      vertex -17.445 18.9499 9.5
      vertex -2.42705 18.9499 4.76336
    endloop
  endfacet
  facet normal 0 1 0
    outer loop
      vertex 8.875 18.9499 -5.125
      vertex 0.927051 18.9499 0.14683
      vertex 2.42705 18.9499 1.23664
    endloop
  endfacet
  facet normal 0 1 0
    outer loop
      vertex 8.875 18.9499 -5.125
      vertex 2.42705 18.9499 1.23664
      vertex 3 18.9499 3
    endloop
  endfacet
  facet normal 0 1 0
    outer loop
      vertex -17.445 18.9499 -8.5
      vertex -17.445 18.9499 9.5
      vertex -2.42705 18.9499 1.23664
    endloop
  endfacet
  facet normal 0 1 0
    outer loop
      vertex -17.445 18.9499 -8.5
      vertex -2.42705 18.9499 1.23664
      vertex -0.927051 18.9499 0.14683
    endloop
  endfacet
  facet normal 0 1 0
    outer loop
      vertex 13.125 18.9499 -4.9638
      vertex 16.555 18.9499 -8.5
      vertex 13.125 18.9499 -5.125
    endloop
  endfacet
  facet normal 0 1 0
    outer loop
      vertex 0.927051 18.9499 5.85317
      vertex 16.555 18.9499 9.5
      vertex 2.42705 18.9499 4.76336
    endloop
  endfacet
  facet normal 0 1 0
    outer loop
      vertex 8.875 18.9499 -0.875
      vertex 3 18.9499 3
      vertex 16.555 18.9499 9.5
    endloop
  endfacet
  facet normal 0 1 0
    outer loop
      vertex 3 18.9499 3
      vertex 2.42705 18.9499 4.76336
      vertex 16.555 18.9499 9.5
    endloop
  endfacet
  facet normal 0 1 0
    outer loop
      vertex -0.927051 18.9499 5.85317
      vertex -17.445 18.9499 9.5
      vertex 0.927051 18.9499 5.85317
    endloop
  endfacet
  facet normal 0 1 0
    outer loop
      vertex 8.875 18.9499 -5.125
      vertex -0.927051 18.9499 0.14683
      vertex 0.927051 18.9499 0.14683
    endloop
  endfacet
  facet normal 0 1 0
    outer loop
      vertex -2.42705 18.9499 4.76336
      vertex -17.445 18.9499 9.5
      vertex -0.927051 18.9499 5.85317
    endloop
  endfacet
  facet normal 0 1 0
    outer loop
      vertex 13.125 18.9499 -0.875
      vertex 8.875 18.9499 -0.875
      vertex 16.555 18.9499 9.5
    endloop
  endfacet
  facet normal 0 1 0
    outer loop
      vertex -17.445 18.9499 -8.5
      vertex -0.927051 18.9499 0.14683
      vertex 8.875 18.9499 -5.125
    endloop
  endfacet
  facet normal 0 1 0
    outer loop
      vertex -17.445 18.9499 -8.5
      vertex 8.875 18.9499 -5.125
      vertex 16.555 18.9499 -8.5
    endloop
  endfacet
  facet normal 0 1 0
    outer loop
      vertex 14.4499 18.9499 -1.33861
      vertex 16.555 18.9499 9.5
      vertex 15.25 18.9499 -3
    endloop
  endfacet
  facet normal 0 1 0
    outer loop
      vertex 16.555 18.9499 -8.5
      vertex 13.125 18.9499 -4.9638
      vertex 14.4499 18.9499 -4.66139
    endloop
  endfacet
  facet normal 0 1 0
    outer loop
      vertex 16.555 18.9499 -8.5
      vertex 14.4499 18.9499 -4.66139
      vertex 15.25 18.9499 -3
    endloop
  endfacet
  facet normal 0 1 0
    outer loop
      vertex 16.555 18.9499 -8.5
      vertex 15.25 18.9499 -3
      vertex 16.555 18.9499 9.5
    endloop
  endfacet
  facet normal 0 1 0
    outer loop
      vertex 13.125 18.9499 -1.0362
      vertex 16.555 18.9499 9.5
      vertex 14.4499 18.9499 -1.33861
    endloop
  endfacet
  facet normal 0 1 0
    outer loop
      vertex 13.125 18.9499 -1.0362
      vertex 13.125 18.9499 -0.875
      vertex 16.555 18.9499 9.5
    endloop
  endfacet
  facet normal 0 1 0
    outer loop
      vertex -2.42705 18.9499 1.23664
      vertex -17.445 18.9499 9.5
      vertex -3 18.9499 3
    endloop
  endfacet
  facet normal 0 1 0
    outer loop
      vertex 8.875 18.9499 -5.125
      vertex 3 18.9499 3
      vertex 8.875 18.9499 -0.875
    endloop
  endfacet
  facet normal 0 1 0
    outer loop
      vertex 13.125 18.9499 -5.125
      vertex 16.555 18.9499 -8.5
      vertex 8.875 18.9499 -5.125
    endloop
  endfacet
  facet normal 0.994522 -0.104528 0
    outer loop
      vertex -10.7596 2.28703 -8.5
      vertex -10.7596 2.28703 9.5
      vertex -11 0 9.5
    endloop
  endfacet
  facet normal 0.994522 -0.104528 0
    outer loop
      vertex -11 0 -8.5
      vertex -10.7596 2.28703 -8.5
      vertex -11 0 9.5
    endloop
  endfacet
  facet normal 0.994522 0.104528 0
    outer loop
      vertex -11 0 9.5
      vertex -10.7596 -2.28703 9.5
      vertex -10.7596 -2.28703 -8.5
    endloop
  endfacet
  facet normal 0.994522 0.104528 0
    outer loop
      vertex -11 0 -8.5
      vertex -11 0 9.5
      vertex -10.7596 -2.28703 -8.5
    endloop
  endfacet
  facet normal 0.951056 -0.309017 0
    outer loop
      vertex -10.049 4.4741 -8.5
      vertex -10.049 4.4741 9.5
      vertex -10.7596 2.28703 9.5
    endloop
  endfacet
  facet normal 0.951056 -0.309017 0
    outer loop
      vertex -10.7596 2.28703 -8.5
      vertex -10.049 4.4741 -8.5
      vertex -10.7596 2.28703 9.5
    endloop
  endfacet
  facet normal 0.866025 -0.5 0
    outer loop
      vertex -8.89919 6.46564 -8.5
      vertex -8.89919 6.46564 9.5
      vertex -10.049 4.4741 9.5
    endloop
  endfacet
  facet normal 0.866025 -0.5 0
    outer loop
      vertex -10.049 4.4741 -8.5
      vertex -8.89919 6.46564 -8.5
      vertex -10.049 4.4741 9.5
    endloop
  endfacet
  facet normal 0.743145 -0.669131 0
    outer loop
      vertex -7.51764 8 6
      vertex -8.89919 6.46564 9.5
      vertex -7.51764 8 -4.60308e-016
    endloop
  endfacet
  facet normal 0.743145 -0.669131 0
    outer loop
      vertex -7.36044 8.17459 -8.5
      vertex -7.36044 8.17459 -4.50682e-016
      vertex -7.51764 8 -4.60308e-016
    endloop
  endfacet
  facet normal 0.743145 -0.669131 0
    outer loop
      vertex -8.89919 6.46564 9.5
      vertex -7.36044 8.17459 -8.5
      vertex -7.51764 8 -4.60308e-016
    endloop
  endfacet
  facet normal 0.743145 -0.669131 0
    outer loop
      vertex -7.36044 8.17459 6
      vertex -7.36044 8.17459 9.5
      vertex -7.51764 8 6
    endloop
  endfacet
  facet normal 0.743145 -0.669131 0
    outer loop
      vertex -7.36044 8.17459 9.5
      vertex -8.89919 6.46564 9.5
      vertex -7.51764 8 6
    endloop
  endfacet
  facet normal 0.743145 -0.669131 0
    outer loop
      vertex -8.89919 6.46564 9.5
      vertex -8.89919 6.46564 -8.5
      vertex -7.36044 8.17459 -8.5
    endloop
  endfacet
  facet normal 0.587785 -0.809017 0
    outer loop
      vertex -5.5 9.52628 -8.5
      vertex -5.5 9.52628 -3.36767e-016
      vertex -7.36044 8.17459 -4.50682e-016
    endloop
  endfacet
  facet normal 0.587785 -0.809017 0
    outer loop
      vertex -7.36044 8.17459 -8.5
      vertex -5.5 9.52628 -8.5
      vertex -7.36044 8.17459 -4.50682e-016
    endloop
  endfacet
  facet normal 0.406737 -0.913545 0
    outer loop
      vertex -3.39919 10.4616 -8.5
      vertex -3.39919 10.4616 -2.08133e-016
      vertex -5.5 9.52628 -3.36767e-016
    endloop
  endfacet
  facet normal 0.406737 -0.913545 0
    outer loop
      vertex -5.5 9.52628 -8.5
      vertex -3.39919 10.4616 -8.5
      vertex -5.5 9.52628 -3.36767e-016
    endloop
  endfacet
  facet normal 0.207912 -0.978148 0
    outer loop
      vertex -1.14981 10.9397 -8.5
      vertex -1.14981 10.9397 -7.04034e-017
      vertex -3.39919 10.4616 -2.08133e-016
    endloop
  endfacet
  facet normal 0.207912 -0.978148 0
    outer loop
      vertex -3.39919 10.4616 -8.5
      vertex -1.14981 10.9397 -8.5
      vertex -3.39919 10.4616 -2.08133e-016
    endloop
  endfacet
  facet normal 0 -1 0
    outer loop
      vertex 1.14981 10.9397 -8.5
      vertex 1.14981 10.9397 7.04034e-017
      vertex -1.14981 10.9397 -7.04034e-017
    endloop
  endfacet
  facet normal 0 -1 0
    outer loop
      vertex -1.14981 10.9397 -8.5
      vertex 1.14981 10.9397 -8.5
      vertex -1.14981 10.9397 -7.04034e-017
    endloop
  endfacet
  facet normal -0.207912 -0.978148 0
    outer loop
      vertex 3.39919 10.4616 -8.5
      vertex 3.39919 10.4616 2.08133e-016
      vertex 1.14981 10.9397 7.04034e-017
    endloop
  endfacet
  facet normal -0.207912 -0.978148 0
    outer loop
      vertex 1.14981 10.9397 -8.5
      vertex 3.39919 10.4616 -8.5
      vertex 1.14981 10.9397 7.04034e-017
    endloop
  endfacet
  facet normal -0.406737 -0.913545 0
    outer loop
      vertex 5.5 9.52628 -8.5
      vertex 5.5 9.52628 3.36767e-016
      vertex 3.39919 10.4616 2.08133e-016
    endloop
  endfacet
  facet normal -0.406737 -0.913545 0
    outer loop
      vertex 3.39919 10.4616 -8.5
      vertex 5.5 9.52628 -8.5
      vertex 3.39919 10.4616 2.08133e-016
    endloop
  endfacet
  facet normal -0.587785 -0.809017 0
    outer loop
      vertex 7.36044 8.17459 -8.5
      vertex 7.36044 8.17459 4.50682e-016
      vertex 5.5 9.52628 3.36767e-016
    endloop
  endfacet
  facet normal -0.587785 -0.809017 0
    outer loop
      vertex 5.5 9.52628 -8.5
      vertex 7.36044 8.17459 -8.5
      vertex 5.5 9.52628 3.36767e-016
    endloop
  endfacet
  facet normal -0.743145 -0.669131 0
    outer loop
      vertex 8.89919 6.46564 -6
      vertex 8 7.46429 -6
      vertex 8.89919 6.46564 -8.5
    endloop
  endfacet
  facet normal -0.743145 -0.669131 0
    outer loop
      vertex 8.89919 6.46564 9.5
      vertex 8 7.46429 -4.57041e-016
      vertex 8.89919 6.46564 -3.95893e-016
    endloop
  endfacet
  facet normal -0.743145 -0.669131 0
    outer loop
      vertex 7.36044 8.17459 9.5
      vertex 8 7.46429 -4.57041e-016
      vertex 8.89919 6.46564 9.5
    endloop
  endfacet
  facet normal -0.743145 -0.669131 0
    outer loop
      vertex 7.51764 8 6
      vertex 8 7.46429 -4.57041e-016
      vertex 7.36044 8.17459 9.5
    endloop
  endfacet
  facet normal -0.743145 -0.669131 0
    outer loop
      vertex 8 7.46429 -6
      vertex 8 7.46429 -4.57041e-016
      vertex 7.51764 8 6
    endloop
  endfacet
  facet normal -0.743145 -0.669131 0
    outer loop
      vertex 7.51764 8 4.60308e-016
      vertex 8 7.46429 -6
      vertex 7.51764 8 6
    endloop
  endfacet
  facet normal -0.743145 -0.669131 0
    outer loop
      vertex 7.36044 8.17459 -8.5
      vertex 8 7.46429 -6
      vertex 7.36044 8.17459 4.50682e-016
    endloop
  endfacet
  facet normal -0.743145 -0.669131 0
    outer loop
      vertex 8 7.46429 -6
      vertex 7.51764 8 4.60308e-016
      vertex 7.36044 8.17459 4.50682e-016
    endloop
  endfacet
  facet normal -0.743145 -0.669131 0
    outer loop
      vertex 8.89919 6.46564 -8.5
      vertex 8 7.46429 -6
      vertex 7.36044 8.17459 -8.5
    endloop
  endfacet
  facet normal -0.743145 -0.669131 0
    outer loop
      vertex 7.51764 8 6
      vertex 7.36044 8.17459 9.5
      vertex 7.36044 8.17459 6
    endloop
  endfacet
  facet normal -0.866025 -0.5 0
    outer loop
      vertex 10.049 4.4741 -6
      vertex 8.89919 6.46564 -6
      vertex 10.049 4.4741 -8.5
    endloop
  endfacet
  facet normal -0.866025 -0.5 0
    outer loop
      vertex 10.049 4.4741 -8.5
      vertex 8.89919 6.46564 -6
      vertex 8.89919 6.46564 -8.5
    endloop
  endfacet
  facet normal -0.951056 -0.309017 0
    outer loop
      vertex 10.7596 2.28703 -6
      vertex 10.049 4.4741 -6
      vertex 10.7596 2.28703 -8.5
    endloop
  endfacet
  facet normal -0.951056 -0.309017 0
    outer loop
      vertex 10.7596 2.28703 -8.5
      vertex 10.049 4.4741 -6
      vertex 10.049 4.4741 -8.5
    endloop
  endfacet
  facet normal -0.994522 -0.104528 0
    outer loop
      vertex 11 0 -6
      vertex 10.7596 2.28703 -6
      vertex 11 0 -8.5
    endloop
  endfacet
  facet normal -0.994522 -0.104528 0
    outer loop
      vertex 11 0 -8.5
      vertex 10.7596 2.28703 -6
      vertex 10.7596 2.28703 -8.5
    endloop
  endfacet
  facet normal -0.994522 0.104528 0
    outer loop
      vertex 11 0 -6
      vertex 11 0 -8.5
      vertex 10.7596 -2.28703 -6
    endloop
  endfacet
  facet normal -0.994522 0.104528 0
    outer loop
      vertex 10.7596 -2.28703 -6
      vertex 11 0 -8.5
      vertex 10.7596 -2.28703 -8.5
    endloop
  endfacet
  facet normal -0.951056 0.309017 0
    outer loop
      vertex 10.7596 -2.28703 -6
      vertex 10.7596 -2.28703 -8.5
      vertex 10.049 -4.4741 -6
    endloop
  endfacet
  facet normal -0.951056 0.309017 0
    outer loop
      vertex 10.049 -4.4741 -6
      vertex 10.7596 -2.28703 -8.5
      vertex 10.049 -4.4741 -8.5
    endloop
  endfacet
  facet normal -0.866025 0.5 0
    outer loop
      vertex 10.049 -4.4741 -6
      vertex 10.049 -4.4741 -8.5
      vertex 8.89919 -6.46564 -6
    endloop
  endfacet
  facet normal -0.866025 0.5 0
    outer loop
      vertex 8.89919 -6.46564 -6
      vertex 10.049 -4.4741 -8.5
      vertex 8.89919 -6.46564 -8.5
    endloop
  endfacet
  facet normal -0.743145 0.669131 0
    outer loop
      vertex 8.89919 -6.46564 9.5
      vertex 8.89919 -6.46564 3.95893e-016
      vertex 7.36044 -8.17459 9.5
    endloop
  endfacet
  facet normal -0.743145 0.669131 0
    outer loop
      vertex 7.36044 -8.17459 9.5
      vertex 8.89919 -6.46564 3.95893e-016
      vertex 8 -7.46429 4.57041e-016
    endloop
  endfacet
  facet normal -0.743145 0.669131 0
    outer loop
      vertex 7.36044 -8.17459 9.5
      vertex 8 -7.46429 4.57041e-016
      vertex 8 -7.46429 -6
    endloop
  endfacet
  facet normal -0.743145 0.669131 0
    outer loop
      vertex 8 -7.46429 -6
      vertex 8.89919 -6.46564 -6
      vertex 8.89919 -6.46564 -8.5
    endloop
  endfacet
  facet normal -0.743145 0.669131 0
    outer loop
      vertex 8 -7.46429 -6
      vertex 8.89919 -6.46564 -8.5
      vertex 7.36044 -8.17459 -8.5
    endloop
  endfacet
  facet normal -0.743145 0.669131 0
    outer loop
      vertex 8 -7.46429 -6
      vertex 7.36044 -8.17459 -8.5
      vertex 7.36044 -8.17459 9.5
    endloop
  endfacet
  facet normal -0.587785 0.809017 0
    outer loop
      vertex 7.36044 -8.17459 9.5
      vertex 7.36044 -8.17459 -8.5
      vertex 5.5 -9.52628 9.5
    endloop
  endfacet
  facet normal -0.587785 0.809017 0
    outer loop
      vertex 5.5 -9.52628 9.5
      vertex 7.36044 -8.17459 -8.5
      vertex 5.5 -9.52628 -8.5
    endloop
  endfacet
  facet normal -0.406737 0.913545 0
    outer loop
      vertex 5.5 -9.52628 9.5
      vertex 5.5 -9.52628 -8.5
      vertex 3.39919 -10.4616 9.5
    endloop
  endfacet
  facet normal -0.406737 0.913545 0
    outer loop
      vertex 3.39919 -10.4616 9.5
      vertex 5.5 -9.52628 -8.5
      vertex 3.39919 -10.4616 -8.5
    endloop
  endfacet
  facet normal -0.207912 0.978148 0
    outer loop
      vertex 3.39919 -10.4616 9.5
      vertex 3.39919 -10.4616 -8.5
      vertex 1.14981 -10.9397 9.5
    endloop
  endfacet
  facet normal -0.207912 0.978148 0
    outer loop
      vertex 1.14981 -10.9397 9.5
      vertex 3.39919 -10.4616 -8.5
      vertex 1.14981 -10.9397 -8.5
    endloop
  endfacet
  facet normal 0 1 0
    outer loop
      vertex 1.14981 -10.9397 9.5
      vertex 1.14981 -10.9397 -8.5
      vertex -1.14981 -10.9397 9.5
    endloop
  endfacet
  facet normal 0 1 0
    outer loop
      vertex -1.14981 -10.9397 9.5
      vertex 1.14981 -10.9397 -8.5
      vertex -1.14981 -10.9397 -8.5
    endloop
  endfacet
  facet normal 0.207912 0.978148 0
    outer loop
      vertex -1.14981 -10.9397 9.5
      vertex -1.14981 -10.9397 -8.5
      vertex -3.39919 -10.4616 9.5
    endloop
  endfacet
  facet normal 0.207912 0.978148 0
    outer loop
      vertex -3.39919 -10.4616 9.5
      vertex -1.14981 -10.9397 -8.5
      vertex -3.39919 -10.4616 -8.5
    endloop
  endfacet
  facet normal 0.406737 0.913545 0
    outer loop
      vertex -3.39919 -10.4616 9.5
      vertex -3.39919 -10.4616 -8.5
      vertex -5.5 -9.52628 9.5
    endloop
  endfacet
  facet normal 0.406737 0.913545 0
    outer loop
      vertex -5.5 -9.52628 9.5
      vertex -3.39919 -10.4616 -8.5
      vertex -5.5 -9.52628 -8.5
    endloop
  endfacet
  facet normal 0.587785 0.809017 0
    outer loop
      vertex -5.5 -9.52628 9.5
      vertex -5.5 -9.52628 -8.5
      vertex -7.36044 -8.17459 9.5
    endloop
  endfacet
  facet normal 0.587785 0.809017 0
    outer loop
      vertex -7.36044 -8.17459 9.5
      vertex -5.5 -9.52628 -8.5
      vertex -7.36044 -8.17459 -8.5
    endloop
  endfacet
  facet normal 0.743145 0.669131 0
    outer loop
      vertex -8.89919 -6.46564 9.5
      vertex -7.36044 -8.17459 9.5
      vertex -7.36044 -8.17459 -8.5
    endloop
  endfacet
  facet normal 0.743145 0.669131 0
    outer loop
      vertex -8.89919 -6.46564 -8.5
      vertex -8.89919 -6.46564 9.5
      vertex -7.36044 -8.17459 -8.5
    endloop
  endfacet
  facet normal 0.866025 0.5 0
    outer loop
      vertex -10.049 -4.4741 9.5
      vertex -8.89919 -6.46564 9.5
      vertex -8.89919 -6.46564 -8.5
    endloop
  endfacet
  facet normal 0.866025 0.5 0
    outer loop
      vertex -10.049 -4.4741 -8.5
      vertex -10.049 -4.4741 9.5
      vertex -8.89919 -6.46564 -8.5
    endloop
  endfacet
  facet normal 0.951056 0.309017 0
    outer loop
      vertex -10.7596 -2.28703 9.5
      vertex -10.049 -4.4741 9.5
      vertex -10.049 -4.4741 -8.5
    endloop
  endfacet
  facet normal 0.951056 0.309017 0
    outer loop
      vertex -10.7596 -2.28703 -8.5
      vertex -10.7596 -2.28703 9.5
      vertex -10.049 -4.4741 -8.5
    endloop
  endfacet
  facet normal -0.866025 0.5 0
    outer loop
      vertex 10.049 -4.4741 9.5
      vertex 10.049 -4.4741 2.73951e-016
      vertex 8.89919 -6.46564 9.5
    endloop
  endfacet
  facet normal -0.866025 0.5 0
    outer loop
      vertex 8.89919 -6.46564 9.5
      vertex 10.049 -4.4741 2.73951e-016
      vertex 8.89919 -6.46564 3.95893e-016
    endloop
  endfacet
  facet normal -0.951056 0.309017 0
    outer loop
      vertex 10.7596 -2.28703 9.5
      vertex 10.7596 -2.28703 1.40036e-016
      vertex 10.049 -4.4741 9.5
    endloop
  endfacet
  facet normal -0.951056 0.309017 0
    outer loop
      vertex 10.049 -4.4741 9.5
      vertex 10.7596 -2.28703 1.40036e-016
      vertex 10.049 -4.4741 2.73951e-016
    endloop
  endfacet
  facet normal -0.994522 0.104528 0
    outer loop
      vertex 11 0 9.5
      vertex 11 0 1.12475e-032
      vertex 10.7596 -2.28703 9.5
    endloop
  endfacet
  facet normal -0.994522 0.104528 0
    outer loop
      vertex 10.7596 -2.28703 9.5
      vertex 11 0 1.12475e-032
      vertex 10.7596 -2.28703 1.40036e-016
    endloop
  endfacet
  facet normal -0.994522 -0.104528 0
    outer loop
      vertex 11 0 9.5
      vertex 10.7596 2.28703 9.5
      vertex 11 0 1.12475e-032
    endloop
  endfacet
  facet normal -0.994522 -0.104528 0
    outer loop
      vertex 11 0 1.12475e-032
      vertex 10.7596 2.28703 9.5
      vertex 10.7596 2.28703 -1.40036e-016
    endloop
  endfacet
  facet normal -0.951056 -0.309017 0
    outer loop
      vertex 10.7596 2.28703 9.5
      vertex 10.049 4.4741 9.5
      vertex 10.7596 2.28703 -1.40036e-016
    endloop
  endfacet
  facet normal -0.951056 -0.309017 0
    outer loop
      vertex 10.7596 2.28703 -1.40036e-016
      vertex 10.049 4.4741 9.5
      vertex 10.049 4.4741 -2.73951e-016
    endloop
  endfacet
  facet normal -0.866025 -0.5 0
    outer loop
      vertex 10.049 4.4741 9.5
      vertex 8.89919 6.46564 9.5
      vertex 10.049 4.4741 -2.73951e-016
    endloop
  endfacet
  facet normal -0.866025 -0.5 0
    outer loop
      vertex 10.049 4.4741 -2.73951e-016
      vertex 8.89919 6.46564 9.5
      vertex 8.89919 6.46564 -3.95893e-016
    endloop
  endfacet
  facet normal -0.587785 -0.809017 0
    outer loop
      vertex 7.36044 8.17459 6
      vertex 7.36044 8.17459 9.5
      vertex 5.5 9.52628 9.5
    endloop
  endfacet
  facet normal -0.587785 -0.809017 0
    outer loop
      vertex 5.5 9.52628 6
      vertex 7.36044 8.17459 6
      vertex 5.5 9.52628 9.5
    endloop
  endfacet
  facet normal -0.406737 -0.913545 0
    outer loop
      vertex 5.5 9.52628 6
      vertex 5.5 9.52628 9.5
      vertex 3.39919 10.4616 9.5
    endloop
  endfacet
  facet normal -0.406737 -0.913545 0
    outer loop
      vertex 3.39919 10.4616 6
      vertex 5.5 9.52628 6
      vertex 3.39919 10.4616 9.5
    endloop
  endfacet
  facet normal -0.207912 -0.978148 0
    outer loop
      vertex 3.39919 10.4616 6
      vertex 3.39919 10.4616 9.5
      vertex 1.14981 10.9397 9.5
    endloop
  endfacet
  facet normal -0.207912 -0.978148 0
    outer loop
      vertex 1.14981 10.9397 6
      vertex 3.39919 10.4616 6
      vertex 1.14981 10.9397 9.5
    endloop
  endfacet
  facet normal 0 -1 0
    outer loop
      vertex 1.14981 10.9397 6
      vertex 1.14981 10.9397 9.5
      vertex -1.14981 10.9397 9.5
    endloop
  endfacet
  facet normal 0 -1 0
    outer loop
      vertex -1.14981 10.9397 6
      vertex 1.14981 10.9397 6
      vertex -1.14981 10.9397 9.5
    endloop
  endfacet
  facet normal 0.207912 -0.978148 0
    outer loop
      vertex -1.14981 10.9397 6
      vertex -1.14981 10.9397 9.5
      vertex -3.39919 10.4616 9.5
    endloop
  endfacet
  facet normal 0.207912 -0.978148 0
    outer loop
      vertex -3.39919 10.4616 6
      vertex -1.14981 10.9397 6
      vertex -3.39919 10.4616 9.5
    endloop
  endfacet
  facet normal 0.406737 -0.913545 0
    outer loop
      vertex -3.39919 10.4616 6
      vertex -3.39919 10.4616 9.5
      vertex -5.5 9.52628 9.5
    endloop
  endfacet
  facet normal 0.406737 -0.913545 0
    outer loop
      vertex -5.5 9.52628 6
      vertex -3.39919 10.4616 6
      vertex -5.5 9.52628 9.5
    endloop
  endfacet
  facet normal 0.587785 -0.809017 0
    outer loop
      vertex -5.5 9.52628 6
      vertex -5.5 9.52628 9.5
      vertex -7.36044 8.17459 9.5
    endloop
  endfacet
  facet normal 0.587785 -0.809017 0
    outer loop
      vertex -7.36044 8.17459 6
      vertex -5.5 9.52628 6
      vertex -7.36044 8.17459 9.5
    endloop
  endfacet
  facet normal 1 -6.12303e-017 6.12303e-017
    outer loop
      vertex -9.5 14.0521 0.14683
      vertex -9.5 15.5521 1.23664
      vertex -9.5 14 0.14683
    endloop
  endfacet
  facet normal 1 -6.12303e-017 6.12303e-017
    outer loop
      vertex -9.5 8 -5.81688e-016
      vertex -9.5 14 -5.81688e-016
      vertex -9.5 14 0.14683
    endloop
  endfacet
  facet normal 1 -6.12303e-017 6.12303e-017
    outer loop
      vertex -9.5 14 5.85317
      vertex -9.5 14 6
      vertex -9.5 13.125 5.125
    endloop
  endfacet
  facet normal 1 -6.12303e-017 6.12303e-017
    outer loop
      vertex -9.5 15.5521 1.23664
      vertex -9.5 8 -5.81688e-016
      vertex -9.5 14 0.14683
    endloop
  endfacet
  facet normal 1 -6.12303e-017 6.12303e-017
    outer loop
      vertex -9.5 8.875 5.125
      vertex -9.5 8 6
      vertex -9.5 8 -5.81688e-016
    endloop
  endfacet
  facet normal 1 -6.12303e-017 6.12303e-017
    outer loop
      vertex -9.5 8.875 0.875
      vertex -9.5 8.875 5.125
      vertex -9.5 8 -5.81688e-016
    endloop
  endfacet
  facet normal 1 -6.12303e-017 6.12303e-017
    outer loop
      vertex -9.5 14 6
      vertex -9.5 8 6
      vertex -9.5 8.875 5.125
    endloop
  endfacet
  facet normal 1 -6.12303e-017 6.12303e-017
    outer loop
      vertex -9.5 14 6
      vertex -9.5 8.875 5.125
      vertex -9.5 13.125 5.125
    endloop
  endfacet
  facet normal 1 -6.12303e-017 6.12303e-017
    outer loop
      vertex -9.5 14.4499 4.66139
      vertex -9.5 15.25 3
      vertex -9.5 15.5521 4.76336
    endloop
  endfacet
  facet normal 1 -6.12303e-017 6.12303e-017
    outer loop
      vertex -9.5 14.0521 5.85317
      vertex -9.5 14 5.85317
      vertex -9.5 13.125 4.9638
    endloop
  endfacet
  facet normal 1 -6.12303e-017 6.12303e-017
    outer loop
      vertex -9.5 15.25 3
      vertex -9.5 14.4499 1.33861
      vertex -9.5 16.125 3
    endloop
  endfacet
  facet normal 1 -6.12303e-017 6.12303e-017
    outer loop
      vertex -9.5 15.5521 4.76336
      vertex -9.5 14.0521 5.85317
      vertex -9.5 14.4499 4.66139
    endloop
  endfacet
  facet normal 1 -6.12303e-017 6.12303e-017
    outer loop
      vertex -9.5 16.125 3
      vertex -9.5 15.5521 4.76336
      vertex -9.5 15.25 3
    endloop
  endfacet
  facet normal 1 -6.12303e-017 6.12303e-017
    outer loop
      vertex -9.5 15.5521 1.23664
      vertex -9.5 16.125 3
      vertex -9.5 14.4499 1.33861
    endloop
  endfacet
  facet normal 1 -6.12303e-017 6.12303e-017
    outer loop
      vertex -9.5 15.5521 1.23664
      vertex -9.5 14.4499 1.33861
      vertex -9.5 13.125 1.0362
    endloop
  endfacet
  facet normal 1 -6.12303e-017 6.12303e-017
    outer loop
      vertex -9.5 15.5521 1.23664
      vertex -9.5 13.125 0.875
      vertex -9.5 8 -5.81688e-016
    endloop
  endfacet
  facet normal 1 -6.12303e-017 6.12303e-017
    outer loop
      vertex -9.5 15.5521 1.23664
      vertex -9.5 13.125 1.0362
      vertex -9.5 13.125 0.875
    endloop
  endfacet
  facet normal 1 -6.12303e-017 6.12303e-017
    outer loop
      vertex -9.5 13.125 4.9638
      vertex -9.5 14.4499 4.66139
      vertex -9.5 14.0521 5.85317
    endloop
  endfacet
  facet normal 1 -6.12303e-017 6.12303e-017
    outer loop
      vertex -9.5 13.125 5.125
      vertex -9.5 13.125 4.9638
      vertex -9.5 14 5.85317
    endloop
  endfacet
  facet normal 1 -6.12303e-017 6.12303e-017
    outer loop
      vertex -9.5 13.125 0.875
      vertex -9.5 8.875 0.875
      vertex -9.5 8 -5.81688e-016
    endloop
  endfacet
  facet normal 1 0 0
    outer loop
      vertex 8.875 -9.5 -5.125
      vertex 8.875 -9.5 -0.875
      vertex 8.875 -18.9499 -0.875
    endloop
  endfacet
  facet normal 1 0 0
    outer loop
      vertex 8.875 -18.9499 -5.125
      vertex 8.875 -9.5 -5.125
      vertex 8.875 -18.9499 -0.875
    endloop
  endfacet
  facet normal 0 6.12303e-017 1
    outer loop
      vertex 13.125 -18.9499 -5.125
      vertex 13.125 -9.5 -5.125
      vertex 8.875 -9.5 -5.125
    endloop
  endfacet
  facet normal 0 6.12303e-017 1
    outer loop
      vertex 8.875 -18.9499 -5.125
      vertex 13.125 -18.9499 -5.125
      vertex 8.875 -9.5 -5.125
    endloop
  endfacet
  facet normal -1 0 0
    outer loop
      vertex 13.125 -9.5 -4.9638
      vertex 13.125 -9.5 -5.125
      vertex 13.125 -18.9499 -4.9638
    endloop
  endfacet
  facet normal -1 0 0
    outer loop
      vertex 13.125 -18.9499 -4.9638
      vertex 13.125 -9.5 -5.125
      vertex 13.125 -18.9499 -5.125
    endloop
  endfacet
  facet normal -0.222521 5.96951e-017 0.974928
    outer loop
      vertex 14.4499 -18.9499 -4.66139
      vertex 14.4499 -9.5 -4.66139
      vertex 13.125 -9.5 -4.9638
    endloop
  endfacet
  facet normal -0.222521 5.96951e-017 0.974928
    outer loop
      vertex 13.125 -18.9499 -4.9638
      vertex 14.4499 -18.9499 -4.66139
      vertex 13.125 -9.5 -4.9638
    endloop
  endfacet
  facet normal -0.900969 2.65668e-017 0.433884
    outer loop
      vertex 15.25 -9.5 -3
      vertex 14.4499 -9.5 -4.66139
      vertex 15.25 -18.9499 -3
    endloop
  endfacet
  facet normal -0.900969 2.65668e-017 0.433884
    outer loop
      vertex 15.25 -18.9499 -3
      vertex 14.4499 -9.5 -4.66139
      vertex 14.4499 -18.9499 -4.66139
    endloop
  endfacet
  facet normal -0.900969 -2.65668e-017 -0.433884
    outer loop
      vertex 15.25 -9.5 -3
      vertex 15.25 -18.9499 -3
      vertex 14.4499 -9.5 -1.33861
    endloop
  endfacet
  facet normal -0.900969 -2.65668e-017 -0.433884
    outer loop
      vertex 14.4499 -9.5 -1.33861
      vertex 15.25 -18.9499 -3
      vertex 14.4499 -18.9499 -1.33861
    endloop
  endfacet
  facet normal -0.222521 -5.96951e-017 -0.974928
    outer loop
      vertex 14.4499 -9.5 -1.33861
      vertex 14.4499 -18.9499 -1.33861
      vertex 13.125 -9.5 -1.0362
    endloop
  endfacet
  facet normal -0.222521 -5.96951e-017 -0.974928
    outer loop
      vertex 13.125 -9.5 -1.0362
      vertex 14.4499 -18.9499 -1.33861
      vertex 13.125 -18.9499 -1.0362
    endloop
  endfacet
  facet normal -1 0 0
    outer loop
      vertex 13.125 -9.5 -0.875
      vertex 13.125 -9.5 -1.0362
      vertex 13.125 -18.9499 -0.875
    endloop
  endfacet
  facet normal -1 0 0
    outer loop
      vertex 13.125 -18.9499 -0.875
      vertex 13.125 -9.5 -1.0362
      vertex 13.125 -18.9499 -1.0362
    endloop
  endfacet
  facet normal 0 -6.12303e-017 -1
    outer loop
      vertex 13.125 -9.5 -0.875
      vertex 13.125 -18.9499 -0.875
      vertex 8.875 -9.5 -0.875
    endloop
  endfacet
  facet normal 0 -6.12303e-017 -1
    outer loop
      vertex 8.875 -9.5 -0.875
      vertex 13.125 -18.9499 -0.875
      vertex 8.875 -18.9499 -0.875
    endloop
  endfacet
  facet normal 3.59903e-017 0.587785 0.809017
    outer loop
      vertex 15.5521 -2.42705 -4.76336
      vertex 19 -2.42705 -4.76336
      vertex 19 -0.927051 -5.85317
    endloop
  endfacet
  facet normal 3.59903e-017 0.587785 0.809017
    outer loop
      vertex 14.0521 -0.927051 -5.85317
      vertex 15.5521 -2.42705 -4.76336
      vertex 19 -0.927051 -5.85317
    endloop
  endfacet
  facet normal 5.82335e-017 0.951057 0.309017
    outer loop
      vertex 19 -3 -3
      vertex 19 -2.42705 -4.76336
      vertex 16.125 -3 -3
    endloop
  endfacet
  facet normal 5.82335e-017 0.951057 0.309017
    outer loop
      vertex 16.125 -3 -3
      vertex 19 -2.42705 -4.76336
      vertex 15.5521 -2.42705 -4.76336
    endloop
  endfacet
  facet normal 0 6.12303e-017 1
    outer loop
      vertex 19 0.927051 -5.85317
      vertex 14.0521 -0.927051 -5.85317
      vertex 19 -0.927051 -5.85317
    endloop
  endfacet
  facet normal 0 6.12303e-017 1
    outer loop
      vertex 14.0521 0.927051 -5.85317
      vertex 14.0521 -0.927051 -5.85317
      vertex 19 0.927051 -5.85317
    endloop
  endfacet
  facet normal 0 6.12303e-017 1
    outer loop
      vertex 14.0521 -9.5 -5.85317
      vertex 14.0521 -0.927051 -5.85317
      vertex 14 9.5 -5.85317
    endloop
  endfacet
  facet normal 0 6.12303e-017 1
    outer loop
      vertex 14 9.5 -5.85317
      vertex 14.0521 -0.927051 -5.85317
      vertex 14.0521 0.927051 -5.85317
    endloop
  endfacet
  facet normal 0 6.12303e-017 1
    outer loop
      vertex 14 9.5 -5.85317
      vertex 14.0521 0.927051 -5.85317
      vertex 14.0521 9.5 -5.85317
    endloop
  endfacet
  facet normal 0 6.12303e-017 1
    outer loop
      vertex 14 -9.5 -5.85317
      vertex 14.0521 -9.5 -5.85317
      vertex 14 9.5 -5.85317
    endloop
  endfacet
  facet normal -3.59903e-017 -0.587785 0.809017
    outer loop
      vertex 19 0.927051 -5.85317
      vertex 19 2.42705 -4.76336
      vertex 15.5521 2.42705 -4.76336
    endloop
  endfacet
  facet normal -3.59903e-017 -0.587785 0.809017
    outer loop
      vertex 14.0521 0.927051 -5.85317
      vertex 19 0.927051 -5.85317
      vertex 15.5521 2.42705 -4.76336
    endloop
  endfacet
  facet normal -5.82335e-017 -0.951057 0.309017
    outer loop
      vertex 19 2.42705 -4.76336
      vertex 19 3 -3
      vertex 16.125 3 -3
    endloop
  endfacet
  facet normal -5.82335e-017 -0.951057 0.309017
    outer loop
      vertex 15.5521 2.42705 -4.76336
      vertex 19 2.42705 -4.76336
      vertex 16.125 3 -3
    endloop
  endfacet
  facet normal -5.82335e-017 -0.951057 -0.309017
    outer loop
      vertex 16.125 3 -3
      vertex 19 3 -3
      vertex 19 2.42705 -1.23664
    endloop
  endfacet
  facet normal -5.82335e-017 -0.951057 -0.309017
    outer loop
      vertex 15.5521 2.42705 -1.23664
      vertex 16.125 3 -3
      vertex 19 2.42705 -1.23664
    endloop
  endfacet
  facet normal -3.59903e-017 -0.587785 -0.809017
    outer loop
      vertex 19 2.42705 -1.23664
      vertex 19 0.927051 -0.14683
      vertex 15.5521 2.42705 -1.23664
    endloop
  endfacet
  facet normal -3.59903e-017 -0.587785 -0.809017
    outer loop
      vertex 15.5521 2.42705 -1.23664
      vertex 19 0.927051 -0.14683
      vertex 14.0521 0.927051 -0.14683
    endloop
  endfacet
  facet normal 0 -6.12303e-017 -1
    outer loop
      vertex 14.0521 9.5 -0.14683
      vertex 14.0521 0.927051 -0.14683
      vertex 14 9.5 -0.14683
    endloop
  endfacet
  facet normal 0 -6.12303e-017 -1
    outer loop
      vertex 19 -0.927051 -0.14683
      vertex 14.0521 0.927051 -0.14683
      vertex 19 0.927051 -0.14683
    endloop
  endfacet
  facet normal 0 -6.12303e-017 -1
    outer loop
      vertex 14.0521 -0.927051 -0.14683
      vertex 14.0521 0.927051 -0.14683
      vertex 19 -0.927051 -0.14683
    endloop
  endfacet
  facet normal 0 -6.12303e-017 -1
    outer loop
      vertex 14 9.5 -0.14683
      vertex 14.0521 0.927051 -0.14683
      vertex 14.0521 -0.927051 -0.14683
    endloop
  endfacet
  facet normal 0 -6.12303e-017 -1
    outer loop
      vertex 14 9.5 -0.14683
      vertex 14.0521 -0.927051 -0.14683
      vertex 14.0521 -9.5 -0.14683
    endloop
  endfacet
  facet normal 0 -6.12303e-017 -1
    outer loop
      vertex 14 9.5 -0.14683
      vertex 14.0521 -9.5 -0.14683
      vertex 14 -9.5 -0.14683
    endloop
  endfacet
  facet normal 3.59903e-017 0.587785 -0.809017
    outer loop
      vertex 19 -2.42705 -1.23664
      vertex 15.5521 -2.42705 -1.23664
      vertex 19 -0.927051 -0.14683
    endloop
  endfacet
  facet normal 3.59903e-017 0.587785 -0.809017
    outer loop
      vertex 19 -0.927051 -0.14683
      vertex 15.5521 -2.42705 -1.23664
      vertex 14.0521 -0.927051 -0.14683
    endloop
  endfacet
  facet normal 5.82335e-017 0.951057 -0.309017
    outer loop
      vertex 19 -3 -3
      vertex 16.125 -3 -3
      vertex 19 -2.42705 -1.23664
    endloop
  endfacet
  facet normal 5.82335e-017 0.951057 -0.309017
    outer loop
      vertex 19 -2.42705 -1.23664
      vertex 16.125 -3 -3
      vertex 15.5521 -2.42705 -1.23664
    endloop
  endfacet
  facet normal 6.12303e-017 1 0
    outer loop
      vertex 19 8.875 0.875
      vertex 9.5 8.875 0.875
      vertex 19 8.875 5.125
    endloop
  endfacet
  facet normal 6.12303e-017 1 0
    outer loop
      vertex 19 8.875 5.125
      vertex 9.5 8.875 0.875
      vertex 9.5 8.875 5.125
    endloop
  endfacet
  facet normal -6.12303e-017 3.74915e-033 1
    outer loop
      vertex 19 8.875 0.875
      vertex 19 13.125 0.875
      vertex 9.5 13.125 0.875
    endloop
  endfacet
  facet normal -6.12303e-017 3.74915e-033 1
    outer loop
      vertex 9.5 8.875 0.875
      vertex 19 8.875 0.875
      vertex 9.5 13.125 0.875
    endloop
  endfacet
  facet normal -6.12303e-017 -1 0
    outer loop
      vertex 9.5 13.125 0.875
      vertex 19 13.125 0.875
      vertex 19 13.125 1.0362
    endloop
  endfacet
  facet normal -6.12303e-017 -1 0
    outer loop
      vertex 9.5 13.125 1.0362
      vertex 9.5 13.125 0.875
      vertex 19 13.125 1.0362
    endloop
  endfacet
  facet normal -7.33202e-017 -0.222521 0.974928
    outer loop
      vertex 19 13.125 1.0362
      vertex 19 14.4499 1.33861
      vertex 9.5 14.4499 1.33861
    endloop
  endfacet
  facet normal -7.33202e-017 -0.222521 0.974928
    outer loop
      vertex 9.5 13.125 1.0362
      vertex 19 13.125 1.0362
      vertex 9.5 14.4499 1.33861
    endloop
  endfacet
  facet normal -8.17334e-017 -0.900969 0.433884
    outer loop
      vertex 9.5 14.4499 1.33861
      vertex 19 14.4499 1.33861
      vertex 19 15.25 3
    endloop
  endfacet
  facet normal -8.17334e-017 -0.900969 0.433884
    outer loop
      vertex 9.5 15.25 3
      vertex 9.5 14.4499 1.33861
      vertex 19 15.25 3
    endloop
  endfacet
  facet normal -2.85998e-017 -0.900969 -0.433884
    outer loop
      vertex 9.5 15.25 3
      vertex 19 15.25 3
      vertex 19 14.4499 4.66139
    endloop
  endfacet
  facet normal -2.85998e-017 -0.900969 -0.433884
    outer loop
      vertex 9.5 14.4499 4.66139
      vertex 9.5 15.25 3
      vertex 19 14.4499 4.66139
    endloop
  endfacet
  facet normal 4.60701e-017 -0.222521 -0.974928
    outer loop
      vertex 19 14.4499 4.66139
      vertex 19 13.125 4.9638
      vertex 9.5 14.4499 4.66139
    endloop
  endfacet
  facet normal 4.60701e-017 -0.222521 -0.974928
    outer loop
      vertex 9.5 14.4499 4.66139
      vertex 19 13.125 4.9638
      vertex 9.5 13.125 4.9638
    endloop
  endfacet
  facet normal -6.12303e-017 -1 0
    outer loop
      vertex 9.5 13.125 4.9638
      vertex 19 13.125 4.9638
      vertex 19 13.125 5.125
    endloop
  endfacet
  facet normal -6.12303e-017 -1 0
    outer loop
      vertex 9.5 13.125 5.125
      vertex 9.5 13.125 4.9638
      vertex 19 13.125 5.125
    endloop
  endfacet
  facet normal 6.12303e-017 -3.74915e-033 -1
    outer loop
      vertex 19 13.125 5.125
      vertex 19 8.875 5.125
      vertex 9.5 13.125 5.125
    endloop
  endfacet
  facet normal 6.12303e-017 -3.74915e-033 -1
    outer loop
      vertex 9.5 13.125 5.125
      vertex 19 8.875 5.125
      vertex 9.5 8.875 5.125
    endloop
  endfacet
  facet normal 0.587785 -7.19806e-017 -0.809017
    outer loop
      vertex -0.927051 18.9499 5.85317
      vertex -0.927051 14.0521 5.85317
      vertex -2.42705 18.9499 4.76336
    endloop
  endfacet
  facet normal 0.587785 -7.19806e-017 -0.809017
    outer loop
      vertex -2.42705 18.9499 4.76336
      vertex -0.927051 14.0521 5.85317
      vertex -2.42705 15.5521 4.76336
    endloop
  endfacet
  facet normal 0.951057 -1.16467e-016 -0.309017
    outer loop
      vertex -3 18.9499 3
      vertex -2.42705 18.9499 4.76336
      vertex -2.42705 15.5521 4.76336
    endloop
  endfacet
  facet normal 0.951057 -1.16467e-016 -0.309017
    outer loop
      vertex -3 16.125 3
      vertex -3 18.9499 3
      vertex -2.42705 15.5521 4.76336
    endloop
  endfacet
  facet normal 6.12303e-017 -3.74915e-033 -1
    outer loop
      vertex -0.927051 14.0521 5.85317
      vertex -0.927051 18.9499 5.85317
      vertex 0.927051 18.9499 5.85317
    endloop
  endfacet
  facet normal 6.12303e-017 -3.74915e-033 -1
    outer loop
      vertex -0.927051 14.0521 5.85317
      vertex 0.927051 18.9499 5.85317
      vertex 0.927051 14.0521 5.85317
    endloop
  endfacet
  facet normal 6.12303e-017 -3.74915e-033 -1
    outer loop
      vertex -0.927051 14.0521 5.85317
      vertex 9.5 14 5.85317
      vertex -9.5 14.0521 5.85317
    endloop
  endfacet
  facet normal 6.12303e-017 -3.74915e-033 -1
    outer loop
      vertex 0.927051 14.0521 5.85317
      vertex 9.5 14.0521 5.85317
      vertex 9.5 14 5.85317
    endloop
  endfacet
  facet normal 6.12303e-017 -3.74915e-033 -1
    outer loop
      vertex 0.927051 14.0521 5.85317
      vertex 9.5 14 5.85317
      vertex -0.927051 14.0521 5.85317
    endloop
  endfacet
  facet normal 6.12303e-017 -3.74915e-033 -1
    outer loop
      vertex 9.5 14 5.85317
      vertex -9.5 14 5.85317
      vertex -9.5 14.0521 5.85317
    endloop
  endfacet
  facet normal -0.587785 7.19806e-017 -0.809017
    outer loop
      vertex 2.42705 18.9499 4.76336
      vertex 2.42705 15.5521 4.76336
      vertex 0.927051 18.9499 5.85317
    endloop
  endfacet
  facet normal -0.587785 7.19806e-017 -0.809017
    outer loop
      vertex 0.927051 18.9499 5.85317
      vertex 2.42705 15.5521 4.76336
      vertex 0.927051 14.0521 5.85317
    endloop
  endfacet
  facet normal -0.951057 1.16467e-016 -0.309017
    outer loop
      vertex 3 18.9499 3
      vertex 3 16.125 3
      vertex 2.42705 18.9499 4.76336
    endloop
  endfacet
  facet normal -0.951057 1.16467e-016 -0.309017
    outer loop
      vertex 2.42705 18.9499 4.76336
      vertex 3 16.125 3
      vertex 2.42705 15.5521 4.76336
    endloop
  endfacet
  facet normal -0.951057 1.16467e-016 0.309017
    outer loop
      vertex 3 18.9499 3
      vertex 2.42705 18.9499 1.23664
      vertex 3 16.125 3
    endloop
  endfacet
  facet normal -0.951057 1.16467e-016 0.309017
    outer loop
      vertex 3 16.125 3
      vertex 2.42705 18.9499 1.23664
      vertex 2.42705 15.5521 1.23664
    endloop
  endfacet
  facet normal -0.587785 7.19806e-017 0.809017
    outer loop
      vertex 2.42705 15.5521 1.23664
      vertex 2.42705 18.9499 1.23664
      vertex 0.927051 18.9499 0.14683
    endloop
  endfacet
  facet normal -0.587785 7.19806e-017 0.809017
    outer loop
      vertex 0.927051 14.0521 0.14683
      vertex 2.42705 15.5521 1.23664
      vertex 0.927051 18.9499 0.14683
    endloop
  endfacet
  facet normal -6.12303e-017 3.74915e-033 1
    outer loop
      vertex 9.5 14 0.14683
      vertex 9.5 14.0521 0.14683
      vertex 0.927051 14.0521 0.14683
    endloop
  endfacet
  facet normal -6.12303e-017 3.74915e-033 1
    outer loop
      vertex -0.927051 14.0521 0.14683
      vertex 9.5 14 0.14683
      vertex 0.927051 14.0521 0.14683
    endloop
  endfacet
  facet normal -6.12303e-017 3.74915e-033 1
    outer loop
      vertex 0.927051 18.9499 0.14683
      vertex -0.927051 18.9499 0.14683
      vertex 0.927051 14.0521 0.14683
    endloop
  endfacet
  facet normal -6.12303e-017 3.74915e-033 1
    outer loop
      vertex -0.927051 18.9499 0.14683
      vertex -0.927051 14.0521 0.14683
      vertex 0.927051 14.0521 0.14683
    endloop
  endfacet
  facet normal -6.12303e-017 3.74915e-033 1
    outer loop
      vertex -0.927051 14.0521 0.14683
      vertex -9.5 14.0521 0.14683
      vertex 9.5 14 0.14683
    endloop
  endfacet
  facet normal -6.12303e-017 3.74915e-033 1
    outer loop
      vertex -9.5 14.0521 0.14683
      vertex -9.5 14 0.14683
      vertex 9.5 14 0.14683
    endloop
  endfacet
  facet normal 0.587785 -7.19806e-017 0.809017
    outer loop
      vertex -0.927051 14.0521 0.14683
      vertex -0.927051 18.9499 0.14683
      vertex -2.42705 18.9499 1.23664
    endloop
  endfacet
  facet normal 0.587785 -7.19806e-017 0.809017
    outer loop
      vertex -2.42705 15.5521 1.23664
      vertex -0.927051 14.0521 0.14683
      vertex -2.42705 18.9499 1.23664
    endloop
  endfacet
  facet normal 0.951057 -1.16467e-016 0.309017
    outer loop
      vertex -2.42705 15.5521 1.23664
      vertex -2.42705 18.9499 1.23664
      vertex -3 18.9499 3
    endloop
  endfacet
  facet normal 0.951057 -1.16467e-016 0.309017
    outer loop
      vertex -3 16.125 3
      vertex -2.42705 15.5521 1.23664
      vertex -3 18.9499 3
    endloop
  endfacet
  facet normal 1 0 0
    outer loop
      vertex 8.875 18.9499 -5.125
      vertex 8.875 18.9499 -0.875
      vertex 8.875 9.5 -0.875
    endloop
  endfacet
  facet normal 1 0 0
    outer loop
      vertex 8.875 9.5 -5.125
      vertex 8.875 18.9499 -5.125
      vertex 8.875 9.5 -0.875
    endloop
  endfacet
  facet normal 0 -6.12303e-017 -1
    outer loop
      vertex 13.125 18.9499 -0.875
      vertex 13.125 9.5 -0.875
      vertex 8.875 18.9499 -0.875
    endloop
  endfacet
  facet normal 0 -6.12303e-017 -1
    outer loop
      vertex 8.875 18.9499 -0.875
      vertex 13.125 9.5 -0.875
      vertex 8.875 9.5 -0.875
    endloop
  endfacet
  facet normal -1 0 0
    outer loop
      vertex 13.125 18.9499 -0.875
      vertex 13.125 18.9499 -1.0362
      vertex 13.125 9.5 -0.875
    endloop
  endfacet
  facet normal -1 0 0
    outer loop
      vertex 13.125 9.5 -0.875
      vertex 13.125 18.9499 -1.0362
      vertex 13.125 9.5 -1.0362
    endloop
  endfacet
  facet normal -0.222521 -5.96951e-017 -0.974928
    outer loop
      vertex 14.4499 18.9499 -1.33861
      vertex 14.4499 9.5 -1.33861
      vertex 13.125 18.9499 -1.0362
    endloop
  endfacet
  facet normal -0.222521 -5.96951e-017 -0.974928
    outer loop
      vertex 13.125 18.9499 -1.0362
      vertex 14.4499 9.5 -1.33861
      vertex 13.125 9.5 -1.0362
    endloop
  endfacet
  facet normal -0.900969 -2.65668e-017 -0.433884
    outer loop
      vertex 15.25 18.9499 -3
      vertex 15.25 9.5 -3
      vertex 14.4499 18.9499 -1.33861
    endloop
  endfacet
  facet normal -0.900969 -2.65668e-017 -0.433884
    outer loop
      vertex 14.4499 18.9499 -1.33861
      vertex 15.25 9.5 -3
      vertex 14.4499 9.5 -1.33861
    endloop
  endfacet
  facet normal -0.900969 2.65668e-017 0.433884
    outer loop
      vertex 15.25 18.9499 -3
      vertex 14.4499 18.9499 -4.66139
      vertex 15.25 9.5 -3
    endloop
  endfacet
  facet normal -0.900969 2.65668e-017 0.433884
    outer loop
      vertex 15.25 9.5 -3
      vertex 14.4499 18.9499 -4.66139
      vertex 14.4499 9.5 -4.66139
    endloop
  endfacet
  facet normal -0.222521 5.96951e-017 0.974928
    outer loop
      vertex 14.4499 9.5 -4.66139
      vertex 14.4499 18.9499 -4.66139
      vertex 13.125 18.9499 -4.9638
    endloop
  endfacet
  facet normal -0.222521 5.96951e-017 0.974928
    outer loop
      vertex 13.125 9.5 -4.9638
      vertex 14.4499 9.5 -4.66139
      vertex 13.125 18.9499 -4.9638
    endloop
  endfacet
  facet normal -1 0 0
    outer loop
      vertex 13.125 18.9499 -4.9638
      vertex 13.125 18.9499 -5.125
      vertex 13.125 9.5 -4.9638
    endloop
  endfacet
  facet normal -1 0 0
    outer loop
      vertex 13.125 9.5 -4.9638
      vertex 13.125 18.9499 -5.125
      vertex 13.125 9.5 -5.125
    endloop
  endfacet
  facet normal 0 6.12303e-017 1
    outer loop
      vertex 13.125 9.5 -5.125
      vertex 13.125 18.9499 -5.125
      vertex 8.875 18.9499 -5.125
    endloop
  endfacet
  facet normal 0 6.12303e-017 1
    outer loop
      vertex 8.875 9.5 -5.125
      vertex 13.125 9.5 -5.125
      vertex 8.875 18.9499 -5.125
    endloop
  endfacet
  facet normal 6.12303e-017 -3.74915e-033 -1
    outer loop
      vertex -1.14981 10.9397 6
      vertex -9.5 14 6
      vertex 1.14981 10.9397 6
    endloop
  endfacet
  facet normal 6.12303e-017 -3.74915e-033 -1
    outer loop
      vertex 7.36044 8.17459 6
      vertex 9.5 8 6
      vertex 7.51764 8 6
    endloop
  endfacet
  facet normal 6.12303e-017 -3.74915e-033 -1
    outer loop
      vertex 9.5 14 6
      vertex 9.5 8 6
      vertex 5.5 9.52628 6
    endloop
  endfacet
  facet normal 6.12303e-017 -3.74915e-033 -1
    outer loop
      vertex 9.5 14 6
      vertex 5.5 9.52628 6
      vertex 3.39919 10.4616 6
    endloop
  endfacet
  facet normal 6.12303e-017 -3.74915e-033 -1
    outer loop
      vertex 9.5 14 6
      vertex 3.39919 10.4616 6
      vertex -9.5 14 6
    endloop
  endfacet
  facet normal 6.12303e-017 -3.74915e-033 -1
    outer loop
      vertex 3.39919 10.4616 6
      vertex 1.14981 10.9397 6
      vertex -9.5 14 6
    endloop
  endfacet
  facet normal 6.12303e-017 -3.74915e-033 -1
    outer loop
      vertex -9.5 14 6
      vertex -1.14981 10.9397 6
      vertex -3.39919 10.4616 6
    endloop
  endfacet
  facet normal 6.12303e-017 -3.74915e-033 -1
    outer loop
      vertex -3.39919 10.4616 6
      vertex -5.5 9.52628 6
      vertex -9.5 14 6
    endloop
  endfacet
  facet normal 6.12303e-017 -3.74915e-033 -1
    outer loop
      vertex -5.5 9.52628 6
      vertex -7.36044 8.17459 6
      vertex -9.5 14 6
    endloop
  endfacet
  facet normal 6.12303e-017 -3.74915e-033 -1
    outer loop
      vertex -7.36044 8.17459 6
      vertex -7.51764 8 6
      vertex -9.5 14 6
    endloop
  endfacet
  facet normal 6.12303e-017 -3.74915e-033 -1
    outer loop
      vertex -9.5 14 6
      vertex -7.51764 8 6
      vertex -9.5 8 6
    endloop
  endfacet
  facet normal 6.12303e-017 -3.74915e-033 -1
    outer loop
      vertex 5.5 9.52628 6
      vertex 9.5 8 6
      vertex 7.36044 8.17459 6
    endloop
  endfacet
  facet normal 6.12303e-017 1 0
    outer loop
      vertex -7.51764 8 -4.60308e-016
      vertex -9.5 8 -5.81688e-016
      vertex -7.51764 8 6
    endloop
  endfacet
  facet normal 6.12303e-017 1 0
    outer loop
      vertex -7.51764 8 6
      vertex -9.5 8 -5.81688e-016
      vertex -9.5 8 6
    endloop
  endfacet
  facet normal -6.12303e-017 3.74915e-033 1
    outer loop
      vertex -9.5 14 -5.81688e-016
      vertex -7.36044 8.17459 -4.50682e-016
      vertex -5.5 9.52628 -3.36767e-016
    endloop
  endfacet
  facet normal -6.12303e-017 3.74915e-033 1
    outer loop
      vertex -1.14981 10.9397 -7.04034e-017
      vertex 9.5 14 5.81688e-016
      vertex -3.39919 10.4616 -2.08133e-016
    endloop
  endfacet
  facet normal -6.12303e-017 3.74915e-033 1
    outer loop
      vertex -3.39919 10.4616 -2.08133e-016
      vertex -9.5 14 -5.81688e-016
      vertex -5.5 9.52628 -3.36767e-016
    endloop
  endfacet
  facet normal -6.12303e-017 3.74915e-033 1
    outer loop
      vertex -7.51764 8 -4.60308e-016
      vertex -7.36044 8.17459 -4.50682e-016
      vertex -9.5 14 -5.81688e-016
    endloop
  endfacet
  facet normal -6.12303e-017 3.74915e-033 1
    outer loop
      vertex 1.14981 10.9397 7.04034e-017
      vertex 9.5 14 5.81688e-016
      vertex -1.14981 10.9397 -7.04034e-017
    endloop
  endfacet
  facet normal -6.12303e-017 3.74915e-033 1
    outer loop
      vertex 3.39919 10.4616 2.08133e-016
      vertex 9.5 14 5.81688e-016
      vertex 1.14981 10.9397 7.04034e-017
    endloop
  endfacet
  facet normal -6.12303e-017 3.74915e-033 1
    outer loop
      vertex 5.5 9.52628 3.36767e-016
      vertex 9.5 8 5.81688e-016
      vertex 3.39919 10.4616 2.08133e-016
    endloop
  endfacet
  facet normal -6.12303e-017 3.74915e-033 1
    outer loop
      vertex 7.36044 8.17459 4.50682e-016
      vertex 9.5 8 5.81688e-016
      vertex 5.5 9.52628 3.36767e-016
    endloop
  endfacet
  facet normal -6.12303e-017 3.74915e-033 1
    outer loop
      vertex 7.51764 8 4.60308e-016
      vertex 9.5 8 5.81688e-016
      vertex 7.36044 8.17459 4.50682e-016
    endloop
  endfacet
  facet normal -6.12303e-017 3.74915e-033 1
    outer loop
      vertex 9.5 8 5.81688e-016
      vertex 9.5 14 5.81688e-016
      vertex 3.39919 10.4616 2.08133e-016
    endloop
  endfacet
  facet normal -6.12303e-017 3.74915e-033 1
    outer loop
      vertex 9.5 14 5.81688e-016
      vertex -9.5 14 -5.81688e-016
      vertex -3.39919 10.4616 -2.08133e-016
    endloop
  endfacet
  facet normal -6.12303e-017 3.74915e-033 1
    outer loop
      vertex -9.5 14 -5.81688e-016
      vertex -9.5 8 -5.81688e-016
      vertex -7.51764 8 -4.60308e-016
    endloop
  endfacet
  facet normal 6.12303e-017 1 0
    outer loop
      vertex 9.5 8 6
      vertex 9.5 8 5.81688e-016
      vertex 7.51764 8 6
    endloop
  endfacet
  facet normal 6.12303e-017 1 0
    outer loop
      vertex 7.51764 8 6
      vertex 9.5 8 5.81688e-016
      vertex 7.51764 8 4.60308e-016
    endloop
  endfacet
  facet normal 0 -6.12303e-017 -1
    outer loop
      vertex 8.89919 -6.46564 3.95893e-016
      vertex 14 -9.5 5.81688e-016
      vertex 8 -7.46429 4.57041e-016
    endloop
  endfacet
  facet normal 0 -6.12303e-017 -1
    outer loop
      vertex 8.89919 -6.46564 3.95893e-016
      vertex 10.049 -4.4741 2.73951e-016
      vertex 14 -9.5 5.81688e-016
    endloop
  endfacet
  facet normal 0 -6.12303e-017 -1
    outer loop
      vertex 14 -9.5 5.81688e-016
      vertex 10.7596 -2.28703 1.40036e-016
      vertex 14 9.5 -5.81688e-016
    endloop
  endfacet
  facet normal 0 -6.12303e-017 -1
    outer loop
      vertex 10.7596 -2.28703 1.40036e-016
      vertex 11 0 1.12475e-032
      vertex 14 9.5 -5.81688e-016
    endloop
  endfacet
  facet normal 0 -6.12303e-017 -1
    outer loop
      vertex 11 0 1.12475e-032
      vertex 10.7596 2.28703 -1.40036e-016
      vertex 14 9.5 -5.81688e-016
    endloop
  endfacet
  facet normal 0 -6.12303e-017 -1
    outer loop
      vertex 14 9.5 -5.81688e-016
      vertex 10.049 4.4741 -2.73951e-016
      vertex 8 9.5 -5.81688e-016
    endloop
  endfacet
  facet normal 0 -6.12303e-017 -1
    outer loop
      vertex 8 9.5 -5.81688e-016
      vertex 8.89919 6.46564 -3.95893e-016
      vertex 8 7.46429 -4.57041e-016
    endloop
  endfacet
  facet normal 0 -6.12303e-017 -1
    outer loop
      vertex 10.049 4.4741 -2.73951e-016
      vertex 8.89919 6.46564 -3.95893e-016
      vertex 8 9.5 -5.81688e-016
    endloop
  endfacet
  facet normal 0 -6.12303e-017 -1
    outer loop
      vertex 10.7596 2.28703 -1.40036e-016
      vertex 10.049 4.4741 -2.73951e-016
      vertex 14 9.5 -5.81688e-016
    endloop
  endfacet
  facet normal 0 -6.12303e-017 -1
    outer loop
      vertex 10.049 -4.4741 2.73951e-016
      vertex 10.7596 -2.28703 1.40036e-016
      vertex 14 -9.5 5.81688e-016
    endloop
  endfacet
  facet normal 0 -6.12303e-017 -1
    outer loop
      vertex 14 -9.5 5.81688e-016
      vertex 8 -9.5 5.81688e-016
      vertex 8 -7.46429 4.57041e-016
    endloop
  endfacet
  facet normal 1 0 0
    outer loop
      vertex 8 9.5 -6
      vertex 8 9.5 -5.81688e-016
      vertex 8 7.46429 -4.57041e-016
    endloop
  endfacet
  facet normal 1 0 0
    outer loop
      vertex 8 7.46429 -6
      vertex 8 9.5 -6
      vertex 8 7.46429 -4.57041e-016
    endloop
  endfacet
  facet normal 0 6.12303e-017 1
    outer loop
      vertex 10.049 4.4741 -6
      vertex 14 9.5 -6
      vertex 8 9.5 -6
    endloop
  endfacet
  facet normal 0 6.12303e-017 1
    outer loop
      vertex 11 0 -6
      vertex 10.7596 -2.28703 -6
      vertex 14 -9.5 -6
    endloop
  endfacet
  facet normal 0 6.12303e-017 1
    outer loop
      vertex 8 7.46429 -6
      vertex 8.89919 6.46564 -6
      vertex 8 9.5 -6
    endloop
  endfacet
  facet normal 0 6.12303e-017 1
    outer loop
      vertex 10.7596 2.28703 -6
      vertex 14 9.5 -6
      vertex 10.049 4.4741 -6
    endloop
  endfacet
  facet normal 0 6.12303e-017 1
    outer loop
      vertex 14 -9.5 -6
      vertex 14 9.5 -6
      vertex 10.7596 2.28703 -6
    endloop
  endfacet
  facet normal 0 6.12303e-017 1
    outer loop
      vertex 10.7596 2.28703 -6
      vertex 11 0 -6
      vertex 14 -9.5 -6
    endloop
  endfacet
  facet normal 0 6.12303e-017 1
    outer loop
      vertex 10.049 -4.4741 -6
      vertex 14 -9.5 -6
      vertex 10.7596 -2.28703 -6
    endloop
  endfacet
  facet normal 0 6.12303e-017 1
    outer loop
      vertex 8.89919 -6.46564 -6
      vertex 14 -9.5 -6
      vertex 10.049 -4.4741 -6
    endloop
  endfacet
  facet normal 0 6.12303e-017 1
    outer loop
      vertex 8 -7.46429 -6
      vertex 14 -9.5 -6
      vertex 8.89919 -6.46564 -6
    endloop
  endfacet
  facet normal 0 6.12303e-017 1
    outer loop
      vertex 8 -9.5 -6
      vertex 14 -9.5 -6
      vertex 8 -7.46429 -6
    endloop
  endfacet
  facet normal 0 6.12303e-017 1
    outer loop
      vertex 8.89919 6.46564 -6
      vertex 10.049 4.4741 -6
      vertex 8 9.5 -6
    endloop
  endfacet
  facet normal 1 0 0
    outer loop
      vertex 8 -7.46429 -6
      vertex 8 -7.46429 4.57041e-016
      vertex 8 -9.5 5.81688e-016
    endloop
  endfacet
  facet normal 1 0 0
    outer loop
      vertex 8 -9.5 -6
      vertex 8 -7.46429 -6
      vertex 8 -9.5 5.81688e-016
    endloop
  endfacet
  facet normal -6.12303e-017 -1 0
    outer loop
      vertex -9.5 14 5.85317
      vertex 9.5 14 5.85317
      vertex 9.5 14 6
    endloop
  endfacet
  facet normal -6.12303e-017 -1 0
    outer loop
      vertex -9.5 14 6
      vertex -9.5 14 5.85317
      vertex 9.5 14 6
    endloop
  endfacet
  facet normal 1.35461e-017 -0.587785 -0.809017
    outer loop
      vertex -2.42705 15.5521 4.76336
      vertex -0.927051 14.0521 5.85317
      vertex -9.5 15.5521 4.76336
    endloop
  endfacet
  facet normal 1.35461e-017 -0.587785 -0.809017
    outer loop
      vertex -9.5 15.5521 4.76336
      vertex -0.927051 14.0521 5.85317
      vertex -9.5 14.0521 5.85317
    endloop
  endfacet
  facet normal -3.93123e-017 -0.951057 -0.309017
    outer loop
      vertex -9.5 16.125 3
      vertex -3 16.125 3
      vertex -2.42705 15.5521 4.76336
    endloop
  endfacet
  facet normal -3.93123e-017 -0.951057 -0.309017
    outer loop
      vertex -9.5 15.5521 4.76336
      vertex -9.5 16.125 3
      vertex -2.42705 15.5521 4.76336
    endloop
  endfacet
  facet normal -7.71547e-017 -0.951057 0.309017
    outer loop
      vertex -9.5 15.5521 1.23664
      vertex -2.42705 15.5521 1.23664
      vertex -3 16.125 3
    endloop
  endfacet
  facet normal -7.71547e-017 -0.951057 0.309017
    outer loop
      vertex -9.5 16.125 3
      vertex -9.5 15.5521 1.23664
      vertex -3 16.125 3
    endloop
  endfacet
  facet normal -8.55266e-017 -0.587785 0.809017
    outer loop
      vertex -0.927051 14.0521 0.14683
      vertex -2.42705 15.5521 1.23664
      vertex -9.5 15.5521 1.23664
    endloop
  endfacet
  facet normal -8.55266e-017 -0.587785 0.809017
    outer loop
      vertex -9.5 14.0521 0.14683
      vertex -0.927051 14.0521 0.14683
      vertex -9.5 15.5521 1.23664
    endloop
  endfacet
  facet normal -6.12303e-017 -1 0
    outer loop
      vertex -9.5 14 -5.81688e-016
      vertex 9.5 14 5.81688e-016
      vertex 9.5 14 0.14683
    endloop
  endfacet
  facet normal -6.12303e-017 -1 0
    outer loop
      vertex -9.5 14 0.14683
      vertex -9.5 14 -5.81688e-016
      vertex 9.5 14 0.14683
    endloop
  endfacet
  facet normal 0 1 -6.12303e-017
    outer loop
      vertex 14 -9.5 5.81688e-016
      vertex 14 -9.5 -0.14683
      vertex 8 -9.5 5.81688e-016
    endloop
  endfacet
  facet normal 0 1 -6.12303e-017
    outer loop
      vertex 8 -9.5 5.81688e-016
      vertex 14 -9.5 -0.14683
      vertex 15.5521 -9.5 -1.23664
    endloop
  endfacet
  facet normal 0 1 -6.12303e-017
    outer loop
      vertex 14 -9.5 -0.14683
      vertex 14.0521 -9.5 -0.14683
      vertex 15.5521 -9.5 -1.23664
    endloop
  endfacet
  facet normal 0 1 -6.12303e-017
    outer loop
      vertex 14.4499 -9.5 -1.33861
      vertex 15.5521 -9.5 -1.23664
      vertex 16.125 -9.5 -3
    endloop
  endfacet
  facet normal 0 1 -6.12303e-017
    outer loop
      vertex 15.25 -9.5 -3
      vertex 16.125 -9.5 -3
      vertex 15.5521 -9.5 -4.76336
    endloop
  endfacet
  facet normal 0 1 -6.12303e-017
    outer loop
      vertex 14.4499 -9.5 -4.66139
      vertex 15.5521 -9.5 -4.76336
      vertex 14.0521 -9.5 -5.85317
    endloop
  endfacet
  facet normal 0 1 -6.12303e-017
    outer loop
      vertex 13.125 -9.5 -4.9638
      vertex 14.0521 -9.5 -5.85317
      vertex 14 -9.5 -5.85317
    endloop
  endfacet
  facet normal 0 1 -6.12303e-017
    outer loop
      vertex 8.875 -9.5 -5.125
      vertex 14 -9.5 -6
      vertex 8 -9.5 -6
    endloop
  endfacet
  facet normal 0 1 -6.12303e-017
    outer loop
      vertex 13.125 -9.5 -5.125
      vertex 14 -9.5 -6
      vertex 8.875 -9.5 -5.125
    endloop
  endfacet
  facet normal 0 1 -6.12303e-017
    outer loop
      vertex 8 -9.5 5.81688e-016
      vertex 8.875 -9.5 -5.125
      vertex 8 -9.5 -6
    endloop
  endfacet
  facet normal 0 1 -6.12303e-017
    outer loop
      vertex 14 -9.5 -5.85317
      vertex 14 -9.5 -6
      vertex 13.125 -9.5 -5.125
    endloop
  endfacet
  facet normal 0 1 -6.12303e-017
    outer loop
      vertex 14.4499 -9.5 -4.66139
      vertex 14.0521 -9.5 -5.85317
      vertex 13.125 -9.5 -4.9638
    endloop
  endfacet
  facet normal 0 1 -6.12303e-017
    outer loop
      vertex 15.25 -9.5 -3
      vertex 15.5521 -9.5 -4.76336
      vertex 14.4499 -9.5 -4.66139
    endloop
  endfacet
  facet normal 0 1 -6.12303e-017
    outer loop
      vertex 14.4499 -9.5 -1.33861
      vertex 16.125 -9.5 -3
      vertex 15.25 -9.5 -3
    endloop
  endfacet
  facet normal 0 1 -6.12303e-017
    outer loop
      vertex 13.125 -9.5 -1.0362
      vertex 15.5521 -9.5 -1.23664
      vertex 14.4499 -9.5 -1.33861
    endloop
  endfacet
  facet normal 0 1 -6.12303e-017
    outer loop
      vertex 8.875 -9.5 -0.875
      vertex 8 -9.5 5.81688e-016
      vertex 13.125 -9.5 -0.875
    endloop
  endfacet
  facet normal 0 1 -6.12303e-017
    outer loop
      vertex 13.125 -9.5 -0.875
      vertex 15.5521 -9.5 -1.23664
      vertex 13.125 -9.5 -1.0362
    endloop
  endfacet
  facet normal 0 1 -6.12303e-017
    outer loop
      vertex 8 -9.5 5.81688e-016
      vertex 15.5521 -9.5 -1.23664
      vertex 13.125 -9.5 -0.875
    endloop
  endfacet
  facet normal 0 1 -6.12303e-017
    outer loop
      vertex 8 -9.5 5.81688e-016
      vertex 8.875 -9.5 -0.875
      vertex 8.875 -9.5 -5.125
    endloop
  endfacet
  facet normal 0 1 -6.12303e-017
    outer loop
      vertex 13.125 -9.5 -4.9638
      vertex 14 -9.5 -5.85317
      vertex 13.125 -9.5 -5.125
    endloop
  endfacet
  facet normal -0.951057 1.89212e-017 0.309017
    outer loop
      vertex 16.125 -3 -3
      vertex 15.5521 -2.42705 -4.76336
      vertex 16.125 -9.5 -3
    endloop
  endfacet
  facet normal -0.951057 1.89212e-017 0.309017
    outer loop
      vertex 16.125 -9.5 -3
      vertex 15.5521 -2.42705 -4.76336
      vertex 15.5521 -9.5 -4.76336
    endloop
  endfacet
  facet normal -0.587785 4.95364e-017 0.809017
    outer loop
      vertex 15.5521 -9.5 -4.76336
      vertex 15.5521 -2.42705 -4.76336
      vertex 14.0521 -0.927051 -5.85317
    endloop
  endfacet
  facet normal -0.587785 4.95364e-017 0.809017
    outer loop
      vertex 14.0521 -9.5 -5.85317
      vertex 15.5521 -9.5 -4.76336
      vertex 14.0521 -0.927051 -5.85317
    endloop
  endfacet
  facet normal -0.951057 -1.89212e-017 -0.309017
    outer loop
      vertex 16.125 -3 -3
      vertex 16.125 -9.5 -3
      vertex 15.5521 -2.42705 -1.23664
    endloop
  endfacet
  facet normal -0.951057 -1.89212e-017 -0.309017
    outer loop
      vertex 15.5521 -2.42705 -1.23664
      vertex 16.125 -9.5 -3
      vertex 15.5521 -9.5 -1.23664
    endloop
  endfacet
  facet normal -1 0 0
    outer loop
      vertex 14 9.5 -5.85317
      vertex 14 9.5 -6
      vertex 14 -9.5 -5.85317
    endloop
  endfacet
  facet normal -1 0 0
    outer loop
      vertex 14 -9.5 -5.85317
      vertex 14 9.5 -6
      vertex 14 -9.5 -6
    endloop
  endfacet
  facet normal 0 -1 6.12303e-017
    outer loop
      vertex 15.5521 9.5 -4.76336
      vertex 14 9.5 -5.85317
      vertex 14.0521 9.5 -5.85317
    endloop
  endfacet
  facet normal 0 -1 6.12303e-017
    outer loop
      vertex 13.125 9.5 -1.0362
      vertex 14.0521 9.5 -0.14683
      vertex 14 9.5 -0.14683
    endloop
  endfacet
  facet normal 0 -1 6.12303e-017
    outer loop
      vertex 13.125 9.5 -1.0362
      vertex 14.4499 9.5 -1.33861
      vertex 14.0521 9.5 -0.14683
    endloop
  endfacet
  facet normal 0 -1 6.12303e-017
    outer loop
      vertex 15.5521 9.5 -4.76336
      vertex 16.125 9.5 -3
      vertex 14 9.5 -5.85317
    endloop
  endfacet
  facet normal 0 -1 6.12303e-017
    outer loop
      vertex 14 9.5 -5.81688e-016
      vertex 8 9.5 -5.81688e-016
      vertex 14 9.5 -0.14683
    endloop
  endfacet
  facet normal 0 -1 6.12303e-017
    outer loop
      vertex 13.125 9.5 -5.125
      vertex 8 9.5 -6
      vertex 14 9.5 -6
    endloop
  endfacet
  facet normal 0 -1 6.12303e-017
    outer loop
      vertex 8 9.5 -5.81688e-016
      vertex 8 9.5 -6
      vertex 8.875 9.5 -0.875
    endloop
  endfacet
  facet normal 0 -1 6.12303e-017
    outer loop
      vertex 14.4499 9.5 -1.33861
      vertex 15.25 9.5 -3
      vertex 15.5521 9.5 -1.23664
    endloop
  endfacet
  facet normal 0 -1 6.12303e-017
    outer loop
      vertex 14 9.5 -0.14683
      vertex 8 9.5 -5.81688e-016
      vertex 13.125 9.5 -0.875
    endloop
  endfacet
  facet normal 0 -1 6.12303e-017
    outer loop
      vertex 13.125 9.5 -4.9638
      vertex 13.125 9.5 -5.125
      vertex 14 9.5 -5.85317
    endloop
  endfacet
  facet normal 0 -1 6.12303e-017
    outer loop
      vertex 14.4499 9.5 -4.66139
      vertex 13.125 9.5 -4.9638
      vertex 14 9.5 -5.85317
    endloop
  endfacet
  facet normal 0 -1 6.12303e-017
    outer loop
      vertex 15.5521 9.5 -1.23664
      vertex 14.0521 9.5 -0.14683
      vertex 14.4499 9.5 -1.33861
    endloop
  endfacet
  facet normal 0 -1 6.12303e-017
    outer loop
      vertex 16.125 9.5 -3
      vertex 15.25 9.5 -3
      vertex 14 9.5 -5.85317
    endloop
  endfacet
  facet normal 0 -1 6.12303e-017
    outer loop
      vertex 16.125 9.5 -3
      vertex 15.5521 9.5 -1.23664
      vertex 15.25 9.5 -3
    endloop
  endfacet
  facet normal 0 -1 6.12303e-017
    outer loop
      vertex 15.25 9.5 -3
      vertex 14.4499 9.5 -4.66139
      vertex 14 9.5 -5.85317
    endloop
  endfacet
  facet normal 0 -1 6.12303e-017
    outer loop
      vertex 13.125 9.5 -1.0362
      vertex 14 9.5 -0.14683
      vertex 13.125 9.5 -0.875
    endloop
  endfacet
  facet normal 0 -1 6.12303e-017
    outer loop
      vertex 14 9.5 -5.85317
      vertex 13.125 9.5 -5.125
      vertex 14 9.5 -6
    endloop
  endfacet
  facet normal 0 -1 6.12303e-017
    outer loop
      vertex 8.875 9.5 -5.125
      vertex 8 9.5 -6
      vertex 13.125 9.5 -5.125
    endloop
  endfacet
  facet normal 0 -1 6.12303e-017
    outer loop
      vertex 8.875 9.5 -0.875
      vertex 8 9.5 -6
      vertex 8.875 9.5 -5.125
    endloop
  endfacet
  facet normal 0 -1 6.12303e-017
    outer loop
      vertex 8.875 9.5 -0.875
      vertex 13.125 9.5 -0.875
      vertex 8 9.5 -5.81688e-016
    endloop
  endfacet
  facet normal -0.587785 4.95364e-017 0.809017
    outer loop
      vertex 15.5521 2.42705 -4.76336
      vertex 15.5521 9.5 -4.76336
      vertex 14.0521 9.5 -5.85317
    endloop
  endfacet
  facet normal -0.587785 4.95364e-017 0.809017
    outer loop
      vertex 14.0521 0.927051 -5.85317
      vertex 15.5521 2.42705 -4.76336
      vertex 14.0521 9.5 -5.85317
    endloop
  endfacet
  facet normal -0.951057 1.89212e-017 0.309017
    outer loop
      vertex 16.125 9.5 -3
      vertex 15.5521 9.5 -4.76336
      vertex 16.125 3 -3
    endloop
  endfacet
  facet normal -0.951057 1.89212e-017 0.309017
    outer loop
      vertex 16.125 3 -3
      vertex 15.5521 9.5 -4.76336
      vertex 15.5521 2.42705 -4.76336
    endloop
  endfacet
  facet normal -0.951057 -1.89212e-017 -0.309017
    outer loop
      vertex 16.125 9.5 -3
      vertex 16.125 3 -3
      vertex 15.5521 9.5 -1.23664
    endloop
  endfacet
  facet normal -0.951057 -1.89212e-017 -0.309017
    outer loop
      vertex 15.5521 9.5 -1.23664
      vertex 16.125 3 -3
      vertex 15.5521 2.42705 -1.23664
    endloop
  endfacet
  facet normal -0.587785 -4.95364e-017 -0.809017
    outer loop
      vertex 15.5521 9.5 -1.23664
      vertex 15.5521 2.42705 -1.23664
      vertex 14.0521 9.5 -0.14683
    endloop
  endfacet
  facet normal -0.587785 -4.95364e-017 -0.809017
    outer loop
      vertex 14.0521 9.5 -0.14683
      vertex 15.5521 2.42705 -1.23664
      vertex 14.0521 0.927051 -0.14683
    endloop
  endfacet
  facet normal -1 0 0
    outer loop
      vertex 14 9.5 -5.81688e-016
      vertex 14 9.5 -0.14683
      vertex 14 -9.5 5.81688e-016
    endloop
  endfacet
  facet normal -1 0 0
    outer loop
      vertex 14 -9.5 5.81688e-016
      vertex 14 9.5 -0.14683
      vertex 14 -9.5 -0.14683
    endloop
  endfacet
  facet normal -0.587785 -4.95364e-017 -0.809017
    outer loop
      vertex 15.5521 -2.42705 -1.23664
      vertex 15.5521 -9.5 -1.23664
      vertex 14.0521 -0.927051 -0.14683
    endloop
  endfacet
  facet normal -0.587785 -4.95364e-017 -0.809017
    outer loop
      vertex 14.0521 -0.927051 -0.14683
      vertex 15.5521 -9.5 -1.23664
      vertex 14.0521 -9.5 -0.14683
    endloop
  endfacet
  facet normal -1 6.12303e-017 -6.12303e-017
    outer loop
      vertex 9.5 14 5.85317
      vertex 9.5 14.0521 5.85317
      vertex 9.5 15.5521 4.76336
    endloop
  endfacet
  facet normal -1 6.12303e-017 -6.12303e-017
    outer loop
      vertex 9.5 14 5.85317
      vertex 9.5 15.5521 4.76336
      vertex 9.5 16.125 3
    endloop
  endfacet
  facet normal -1 6.12303e-017 -6.12303e-017
    outer loop
      vertex 9.5 15.25 3
      vertex 9.5 16.125 3
      vertex 9.5 15.5521 1.23664
    endloop
  endfacet
  facet normal -1 6.12303e-017 -6.12303e-017
    outer loop
      vertex 9.5 14.4499 1.33861
      vertex 9.5 15.5521 1.23664
      vertex 9.5 14.0521 0.14683
    endloop
  endfacet
  facet normal -1 6.12303e-017 -6.12303e-017
    outer loop
      vertex 9.5 14 5.85317
      vertex 9.5 13.125 5.125
      vertex 9.5 14 6
    endloop
  endfacet
  facet normal -1 6.12303e-017 -6.12303e-017
    outer loop
      vertex 9.5 14 0.14683
      vertex 9.5 14 5.81688e-016
      vertex 9.5 8 5.81688e-016
    endloop
  endfacet
  facet normal -1 6.12303e-017 -6.12303e-017
    outer loop
      vertex 9.5 14.4499 1.33861
      vertex 9.5 13.125 0.875
      vertex 9.5 13.125 1.0362
    endloop
  endfacet
  facet normal -1 6.12303e-017 -6.12303e-017
    outer loop
      vertex 9.5 13.125 5.125
      vertex 9.5 8 6
      vertex 9.5 14 6
    endloop
  endfacet
  facet normal -1 6.12303e-017 -6.12303e-017
    outer loop
      vertex 9.5 8 5.81688e-016
      vertex 9.5 8 6
      vertex 9.5 8.875 0.875
    endloop
  endfacet
  facet normal -1 6.12303e-017 -6.12303e-017
    outer loop
      vertex 9.5 14 0.14683
      vertex 9.5 8 5.81688e-016
      vertex 9.5 13.125 0.875
    endloop
  endfacet
  facet normal -1 6.12303e-017 -6.12303e-017
    outer loop
      vertex 9.5 14.4499 1.33861
      vertex 9.5 14.0521 0.14683
      vertex 9.5 14 0.14683
    endloop
  endfacet
  facet normal -1 6.12303e-017 -6.12303e-017
    outer loop
      vertex 9.5 15.25 3
      vertex 9.5 15.5521 1.23664
      vertex 9.5 14.4499 1.33861
    endloop
  endfacet
  facet normal -1 6.12303e-017 -6.12303e-017
    outer loop
      vertex 9.5 14 5.85317
      vertex 9.5 16.125 3
      vertex 9.5 15.25 3
    endloop
  endfacet
  facet normal -1 6.12303e-017 -6.12303e-017
    outer loop
      vertex 9.5 13.125 4.9638
      vertex 9.5 14 5.85317
      vertex 9.5 14.4499 4.66139
    endloop
  endfacet
  facet normal -1 6.12303e-017 -6.12303e-017
    outer loop
      vertex 9.5 14 5.85317
      vertex 9.5 15.25 3
      vertex 9.5 14.4499 4.66139
    endloop
  endfacet
  facet normal -1 6.12303e-017 -6.12303e-017
    outer loop
      vertex 9.5 14.4499 1.33861
      vertex 9.5 14 0.14683
      vertex 9.5 13.125 0.875
    endloop
  endfacet
  facet normal -1 6.12303e-017 -6.12303e-017
    outer loop
      vertex 9.5 13.125 5.125
      vertex 9.5 14 5.85317
      vertex 9.5 13.125 4.9638
    endloop
  endfacet
  facet normal -1 6.12303e-017 -6.12303e-017
    outer loop
      vertex 9.5 8.875 5.125
      vertex 9.5 8 6
      vertex 9.5 13.125 5.125
    endloop
  endfacet
  facet normal -1 6.12303e-017 -6.12303e-017
    outer loop
      vertex 9.5 8.875 0.875
      vertex 9.5 8 6
      vertex 9.5 8.875 5.125
    endloop
  endfacet
  facet normal -1 6.12303e-017 -6.12303e-017
    outer loop
      vertex 9.5 13.125 0.875
      vertex 9.5 8 5.81688e-016
      vertex 9.5 8.875 0.875
    endloop
  endfacet
  facet normal 1.35461e-017 -0.587785 -0.809017
    outer loop
      vertex 9.5 15.5521 4.76336
      vertex 9.5 14.0521 5.85317
      vertex 2.42705 15.5521 4.76336
    endloop
  endfacet
  facet normal 1.35461e-017 -0.587785 -0.809017
    outer loop
      vertex 2.42705 15.5521 4.76336
      vertex 9.5 14.0521 5.85317
      vertex 0.927051 14.0521 5.85317
    endloop
  endfacet
  facet normal -3.93123e-017 -0.951057 -0.309017
    outer loop
      vertex 3 16.125 3
      vertex 9.5 16.125 3
      vertex 9.5 15.5521 4.76336
    endloop
  endfacet
  facet normal -3.93123e-017 -0.951057 -0.309017
    outer loop
      vertex 2.42705 15.5521 4.76336
      vertex 3 16.125 3
      vertex 9.5 15.5521 4.76336
    endloop
  endfacet
  facet normal -7.71547e-017 -0.951057 0.309017
    outer loop
      vertex 9.5 15.5521 1.23664
      vertex 9.5 16.125 3
      vertex 3 16.125 3
    endloop
  endfacet
  facet normal -7.71547e-017 -0.951057 0.309017
    outer loop
      vertex 2.42705 15.5521 1.23664
      vertex 9.5 15.5521 1.23664
      vertex 3 16.125 3
    endloop
  endfacet
  facet normal -8.55266e-017 -0.587785 0.809017
    outer loop
      vertex 9.5 14.0521 0.14683
      vertex 9.5 15.5521 1.23664
      vertex 2.42705 15.5521 1.23664
    endloop
  endfacet
  facet normal -8.55266e-017 -0.587785 0.809017
    outer loop
      vertex 0.927051 14.0521 0.14683
      vertex 9.5 14.0521 0.14683
      vertex 2.42705 15.5521 1.23664
    endloop
  endfacet
endsolid OpenSCAD_Model
